<svg width="11" height="18" viewBox="0 0 11 18" fill="none" xmlns="http://www.w3.org/2000/svg">
<path d="M6.38514 14.5282H6.85619C7.33487 14.5281 7.79764 14.3586 8.16171 14.0512C8.52568 13.7439 8.76781 13.3186 8.84409 12.8514C8.92036 12.3841 8.82586 11.9046 8.57845 11.4994C8.33099 11.0944 7.94607 10.7891 7.49216 10.6393L6.38514 10.2729V14.5282ZM4.06542 3.47179C3.58675 3.47193 3.12398 3.6414 2.75991 3.94877C2.39593 4.25611 2.15381 4.68136 2.07752 5.14862C2.00125 5.61589 2.09575 6.09539 2.34317 6.50056C2.59063 6.9056 2.97555 7.21088 3.42945 7.3607L4.53648 7.72608V3.47179H4.06542ZM10.7194 5.4676C10.7193 5.71163 10.6213 5.94535 10.4478 6.11739C10.2744 6.28936 10.0396 6.38589 9.79509 6.386C9.55042 6.386 9.31486 6.28946 9.14134 6.11739C8.96789 5.94535 8.86986 5.7116 8.86977 5.4676C8.86925 4.93906 8.65761 4.43166 8.28021 4.0574C7.95003 3.73002 7.51677 3.52755 7.05567 3.48167L6.85619 3.47179H6.38514V8.33737L8.07579 8.8973C8.94483 9.18514 9.68288 9.77033 10.1575 10.5485C10.6321 11.3267 10.8118 12.2475 10.6651 13.1457C10.5184 14.0438 10.0545 14.861 9.35662 15.4506C8.65879 16.0401 7.77236 16.364 6.85619 16.365H6.38514V16.8795C6.38505 17.1236 6.28706 17.3573 6.11357 17.5293C5.94007 17.7013 5.70537 17.7979 5.46081 17.7979C5.21625 17.7979 4.98154 17.7013 4.80805 17.5293C4.63455 17.3573 4.53657 17.1236 4.53648 16.8795V16.365H4.06542C3.05803 16.3643 2.0901 15.9738 1.36847 15.2758C0.646803 14.5775 0.227714 13.6265 0.202197 12.6262V12.5324C0.202288 12.2884 0.300276 12.0547 0.473769 11.8826C0.647183 11.7106 0.882019 11.6141 1.12653 11.614C1.37119 11.614 1.60676 11.7105 1.78027 11.8826C1.95373 12.0546 2.05176 12.2884 2.05185 12.5324C2.05237 13.0609 2.264 13.5683 2.6414 13.9426C3.01883 14.3168 3.53097 14.5277 4.06542 14.5282H4.53648V9.66165L2.84582 9.1027C1.97678 8.81486 1.23873 8.22967 0.764103 7.45155C0.289476 6.67328 0.109824 5.75247 0.256512 4.85434C0.403263 3.95616 0.867098 3.13904 1.56499 2.54944C2.26282 1.95995 3.14926 1.63595 4.06542 1.63498H4.53648V1.12048C4.53656 0.876438 4.63455 0.642731 4.80805 0.470683C4.98154 0.298746 5.21624 0.202074 5.46081 0.202074C5.70537 0.202074 5.94007 0.298747 6.11357 0.470683C6.28706 0.642732 6.38505 0.876438 6.38514 1.12048V1.63498H6.85619C7.86359 1.63565 8.83152 2.0262 9.55314 2.72423C10.2748 3.42252 10.6939 4.37348 10.7194 5.37378V5.4676Z" fill="black" stroke="black" stroke-width="0.4"/>
</svg>
