<svg width="70" height="70" viewBox="0 0 70 70" fill="none" xmlns="http://www.w3.org/2000/svg">
<g clip-path="url(#clip0_2011_22163)">
<path d="M31.7051 0C29.76 2.05807 27.7958 4.08516 25.8125 6.08125C19.5763 12.3557 13.321 18.6102 7.04649 24.8445C4.84076 27.0357 2.49193 28.8668 0 30.3379" stroke="#AC0DDF" stroke-width="2"/>
<path d="M47.4277 0C46.3266 1.39818 45.3906 2.49649 44.6195 3.29492C43.4984 4.4543 41.0329 6.96263 37.223 10.8199C36.5813 11.4707 36.0773 12.0659 35.7109 12.6055C35.3098 13.1961 35.0783 13.8906 35.0164 14.6891" stroke="#970ED7" stroke-width="2"/>
<path d="M35.0165 14.6891L18.5228 14.7028C18.4298 14.7028 18.3833 14.7492 18.3833 14.8422L18.3696 22.9578" stroke="#D186ED" stroke-width="2"/>
<path d="M18.3695 22.9578C16.4701 24.2995 14.875 25.5728 13.5844 26.7777C12.5034 27.7858 10.0434 30.2003 6.2043 34.0211C4.41784 35.7985 2.34974 37.4281 0 38.9102" stroke="#970ED7" stroke-width="2"/>
<path d="M60.7114 3.31409C56.3528 8.08102 51.8047 12.6492 47.0669 17.0188" stroke="#7D10CC" stroke-width="2"/>
<path d="M47.0668 17.0187C45.1272 15.5987 43.0418 14.8285 40.8105 14.7082C39.9227 14.6608 37.9914 14.6544 35.0164 14.6891" stroke="#C687E9" stroke-width="2"/>
<path d="M67.6238 10.8856C65.5602 12.9783 62.4139 16.2932 58.1847 20.8305C56.4037 22.7391 54.2226 24.7953 51.6414 26.9992" stroke="#6312C2" stroke-width="2"/>
<path d="M51.6415 26.9992C51.7582 22.8958 50.2333 19.569 47.0669 17.0187" stroke="#B688E3" stroke-width="2"/>
<path d="M70 31.1609C69.7412 31.5547 69.2681 32.1134 68.5809 32.8371C66.9621 34.5379 65.5129 36.03 64.2332 37.3133C55.4504 46.1143 46.6594 54.9063 37.8602 63.6891C36.9013 64.6461 35.0866 66.4071 32.416 68.9719C31.9676 69.4021 31.5438 69.7448 31.1445 70" stroke="#4714B6" stroke-width="2"/>
<path d="M9.34326 66.716C11.1589 64.8494 12.9417 62.98 14.6917 61.1078C16.4891 59.1883 17.7633 57.2779 18.5144 55.3766" stroke="#6312C2" stroke-width="2"/>
<path d="M18.5144 55.3766L26.8378 55.2809C26.929 55.2809 26.9746 55.2353 26.9746 55.1442L27.0074 49.7301" stroke="#AC89DE" stroke-width="2"/>
<path d="M27.0073 49.7301C29.2513 48.0803 31.55 46.0496 33.9034 43.6379C35.781 41.7147 37.3077 39.7961 38.4835 37.882" stroke="#6312C2" stroke-width="2"/>
<path d="M38.4836 37.882C40.6073 38.0151 42.4941 37.7553 44.1438 37.1027C48.5881 35.3436 51.0873 31.9758 51.6415 26.9992" stroke="#AC89DE" stroke-width="2"/>
<path d="M38.4835 37.882L27.1659 37.9012C27.0729 37.9012 27.0265 37.9476 27.0265 38.0406L27.0073 49.7301" stroke="#B688E3" stroke-width="2"/>
<path d="M18.5146 55.3766C18.3231 52.057 18.2767 48.7475 18.3751 45.4481" stroke="#B688E3" stroke-width="2"/>
<path d="M18.3751 45.448L18.356 29.3617C18.356 29.3153 18.3744 29.2708 18.4072 29.238C18.44 29.2051 18.4845 29.1867 18.531 29.1867L32.9165 29.2058" stroke="#C687E9" stroke-width="2"/>
<path d="M32.9165 29.2059C35.1004 29.2223 37.2715 29.2241 39.4298 29.2114C40.385 29.2059 41.0549 29.0883 41.4396 28.8586C43.9142 27.393 43.1978 23.8793 40.4005 23.3297" stroke="#B688E3" stroke-width="2"/>
<path d="M40.4003 23.3297C33.1251 23.3115 25.8562 23.3133 18.5937 23.3352C18.4023 23.337 18.3275 23.2112 18.3695 22.9578" stroke="#C687E9" stroke-width="2"/>
<path d="M40.4005 23.3297L32.9165 29.2059" stroke="#7D10CC" stroke-width="2"/>
<path d="M18.375 45.4481L18.3066 45.0133C18.2884 44.9058 18.2401 44.8903 18.1617 44.9668L2.98047 60.1754" stroke="#7D10CC" stroke-width="2"/>
<path d="M31.7051 0C29.76 2.05807 27.7958 4.08516 25.8125 6.08125C19.5763 12.3557 13.321 18.6102 7.04649 24.8445C4.84076 27.0357 2.49193 28.8668 0 30.3379V19.3676C0.379167 14.0994 2.3543 9.6642 5.92539 6.06211C9.53842 2.41445 14.0128 0.39375 19.3484 0H31.7051Z" fill="#B50CE3"/>
<path d="M47.4277 0C46.3267 1.39818 45.3906 2.49649 44.6195 3.29492C43.4984 4.4543 41.033 6.96263 37.2231 10.8199C36.5814 11.4707 36.0774 12.0659 35.7109 12.6055C35.3099 13.1961 35.0784 13.8906 35.0164 14.6891L18.5227 14.7027C18.4297 14.7027 18.3832 14.7492 18.3832 14.8422L18.3695 22.9578C16.4701 24.2995 14.875 25.5728 13.5844 26.7777C12.5034 27.7858 10.0434 30.2003 6.2043 34.0211C4.41784 35.7985 2.34974 37.4281 0 38.9102V30.3379C2.49193 28.8668 4.84076 27.0357 7.04649 24.8445C13.321 18.6102 19.5763 12.3557 25.8125 6.08125C27.7958 4.08516 29.76 2.05807 31.7051 0H47.4277Z" fill="#A20DDB"/>
<path d="M50.6296 0C54.2974 0.24974 57.6579 1.35443 60.7113 3.31406C56.3527 8.08099 51.8045 12.6492 47.0668 17.0188C45.1272 15.5987 43.0417 14.8285 40.8105 14.7082C39.9227 14.6608 37.9914 14.6544 35.0164 14.6891C35.0783 13.8906 35.3098 13.1961 35.7109 12.6055C36.0773 12.0659 36.5813 11.4707 37.223 10.8199C41.0329 6.96263 43.4984 4.4543 44.6195 3.29492C45.3906 2.49649 46.3266 1.39818 47.4277 0H50.6296Z" fill="#8C0FD2"/>
<path d="M60.7114 3.31409C63.6682 5.27555 65.9724 7.79938 67.6239 10.8856C65.5604 12.9783 62.414 16.2933 58.1849 20.8305C56.4039 22.7391 54.2228 24.7953 51.6415 26.9993C51.7582 22.8959 50.2333 19.569 47.0669 17.0188C51.8047 12.6492 56.3528 8.08102 60.7114 3.31409Z" fill="#6D11C6"/>
<path d="M67.6238 10.8856C68.9964 13.5397 69.7885 16.3598 69.9999 19.3457V31.161C69.7411 31.5547 69.268 32.1134 68.5808 32.8371C66.962 34.5379 65.5128 36.03 64.2331 37.3133C55.4503 46.1143 46.6593 54.9063 37.8601 63.6891C36.9012 64.6461 35.0865 66.4071 32.4159 68.9719C31.9675 69.4021 31.5437 69.7448 31.1444 70H19.3757C15.7299 69.7448 12.3857 68.6502 9.34326 66.716C11.1589 64.8494 12.9417 62.98 14.6917 61.1078C16.4891 59.1883 17.7633 57.2779 18.5144 55.3766L26.8378 55.2809C26.9289 55.2809 26.9745 55.2353 26.9745 55.1442L27.0073 49.7301C29.2513 48.0804 31.55 46.0496 33.9034 43.6379C35.781 41.7147 37.3077 39.7961 38.4835 37.882C40.6072 38.0151 42.4939 37.7554 44.1437 37.1028C48.5879 35.3436 51.0872 31.9758 51.6413 26.9992C54.2226 24.7953 56.4037 22.7391 58.1847 20.8305C62.4139 16.2932 65.5602 12.9783 67.6238 10.8856Z" fill="#5813BD"/>
<path d="M35.0165 14.6891C37.9915 14.6544 39.9229 14.6608 40.8107 14.7082C43.0419 14.8285 45.1273 15.5987 47.0669 17.0187C50.2333 19.569 51.7582 22.8958 51.6415 26.9992C51.0874 31.9758 48.5881 35.3436 44.1439 37.1027C42.4941 37.7553 40.6074 38.0151 38.4837 37.882L27.1661 37.9012C27.0731 37.9012 27.0267 37.9476 27.0267 38.0406L27.0075 49.7301L26.9747 55.1441C26.9747 55.2353 26.9291 55.2809 26.838 55.2809L18.5146 55.3766C18.3231 52.057 18.2767 48.7475 18.3751 45.448L18.356 29.3617C18.356 29.3153 18.3744 29.2708 18.4072 29.238C18.44 29.2051 18.4845 29.1867 18.531 29.1867L32.9165 29.2059C35.1004 29.2223 37.2715 29.2241 39.4298 29.2113C40.385 29.2059 41.0549 29.0883 41.4396 28.8586C43.9142 27.393 43.1978 23.8793 40.4005 23.3297C33.1252 23.3114 25.8564 23.3133 18.5938 23.3351C18.4024 23.337 18.3277 23.2112 18.3696 22.9578L18.3833 14.8422C18.3833 14.7492 18.4298 14.7027 18.5228 14.7027L35.0165 14.6891Z" fill="white"/>
<path d="M18.3695 22.9578C18.3276 23.2112 18.4023 23.337 18.5938 23.3352C25.8563 23.3133 33.1251 23.3115 40.4004 23.3297L32.9164 29.2059L18.5309 29.1867C18.4845 29.1867 18.4399 29.2052 18.4071 29.238C18.3743 29.2708 18.3559 29.3153 18.3559 29.3617L18.375 45.4481L18.3066 45.0133C18.2884 44.9058 18.2401 44.8903 18.1617 44.9668L2.98047 60.1754C1.23776 57.2679 0.244271 54.0951 0 50.6571V38.9102C2.34974 37.4281 4.41784 35.7985 6.2043 34.0211C10.0434 30.2003 12.5034 27.7858 13.5844 26.7777C14.875 25.5728 16.4701 24.2995 18.3695 22.9578Z" fill="#8C0FD2"/>
<path d="M40.4005 23.3297C43.1978 23.8793 43.9142 27.393 41.4396 28.8586C41.0549 29.0883 40.385 29.2059 39.4298 29.2114C37.2715 29.2241 35.1004 29.2223 32.9165 29.2059L40.4005 23.3297Z" fill="#6D11C6"/>
<path d="M70 31.1609V50.6215C69.6573 55.4686 67.9456 59.6249 64.8649 63.0903C61.1589 67.2611 56.422 69.5644 50.6543 70H31.1445C31.5438 69.7448 31.9676 69.4021 32.416 68.9719C35.0866 66.4071 36.9013 64.6461 37.8602 63.6891C46.6594 54.9063 55.4504 46.1143 64.2332 37.3133C65.5129 36.03 66.9621 34.5379 68.5809 32.8371C69.2681 32.1134 69.7412 31.5547 70 31.1609Z" fill="#3515AF"/>
<path d="M38.4835 37.882C37.3077 39.7961 35.781 41.7147 33.9034 43.6379C31.55 46.0496 29.2513 48.0803 27.0073 49.7301L27.0265 38.0406C27.0265 37.9476 27.0729 37.9012 27.1659 37.9012L38.4835 37.882Z" fill="#6D11C6"/>
<path d="M18.375 45.4481C18.2766 48.7476 18.3231 52.0571 18.5145 55.3766C17.7634 57.2779 16.4892 59.1883 14.6918 61.1078C12.9418 62.98 11.159 64.8494 9.34336 66.7161C6.74388 65.0153 4.62292 62.8351 2.98047 60.1754L18.1617 44.9668C18.2401 44.8903 18.2884 44.9058 18.3066 45.0133L18.375 45.4481Z" fill="#6D11C6"/>
</g>
<defs>
<clipPath id="clip0_2011_22163">
<rect width="70" height="70" fill="white"/>
</clipPath>
</defs>
</svg>
