<svg width="17" height="17" viewBox="0 0 17 17" fill="none" xmlns="http://www.w3.org/2000/svg">
<path d="M9.98042 11.3333H10.625C15.3305 11.3333 17 8.85418 17 6.72918C16.9993 6.1533 16.7982 5.59562 16.4311 5.1519C16.064 4.70817 15.5539 4.40607 14.9883 4.29748C15.1017 4.06858 15.1985 3.83186 15.278 3.58915C15.4017 3.17473 15.426 2.73702 15.3489 2.31147C15.2719 1.88592 15.0957 1.4845 14.8346 1.13973C14.5712 0.784462 14.2278 0.496172 13.8324 0.29818C13.4369 0.100187 13.0003 -0.00194975 12.558 2.81892e-05H4.44196C3.9995 -0.0017042 3.56284 0.10076 3.16734 0.299128C2.77183 0.497497 2.42858 0.786196 2.16537 1.14186C1.90429 1.48662 1.72809 1.88804 1.65105 2.31359C1.57402 2.73915 1.59831 3.17686 1.72196 3.59127C1.80152 3.83399 1.89834 4.0707 2.01167 4.2996C1.44647 4.40813 0.936641 4.70991 0.569603 5.1532C0.202564 5.59649 0.0011855 6.15367 0 6.72918C0 8.85418 1.66954 11.3333 6.375 11.3333H7.01958C7.06085 11.5484 7.08219 11.7668 7.08333 11.9857V14.1667C7.0955 14.3559 7.0672 14.5455 7.00031 14.7229C6.93342 14.9003 6.82948 15.0614 6.69543 15.1954C6.56137 15.3295 6.40027 15.4334 6.22288 15.5003C6.04548 15.5672 5.85586 15.5955 5.66667 15.5833H4.25C4.06214 15.5833 3.88197 15.658 3.74913 15.7908C3.61629 15.9236 3.54167 16.1038 3.54167 16.2917C3.54167 16.4795 3.61629 16.6597 3.74913 16.7925C3.88197 16.9254 4.06214 17 4.25 17H12.75C12.9379 17 13.118 16.9254 13.2509 16.7925C13.3837 16.6597 13.4583 16.4795 13.4583 16.2917C13.4583 16.1038 13.3837 15.9236 13.2509 15.7908C13.118 15.658 12.9379 15.5833 12.75 15.5833H11.3376C11.1481 15.5959 10.9581 15.5679 10.7803 15.5012C10.6025 15.4345 10.441 15.3307 10.3065 15.1966C10.172 15.0625 10.0677 14.9013 10.0004 14.7237C9.93323 14.5461 9.90466 14.3562 9.91667 14.1667V11.985C9.91785 11.7663 9.93919 11.5481 9.98042 11.3333ZM11.1392 9.31389C12.353 8.23869 13.4029 6.99182 14.2559 5.61285C14.3399 5.64764 14.4299 5.66591 14.5208 5.66669C14.8026 5.66669 15.0729 5.77863 15.2721 5.97788C15.4714 6.17714 15.5833 6.44739 15.5833 6.72918C15.5833 8.27052 14.2807 9.91668 10.625 9.91668H10.5853C10.745 9.69419 10.931 9.4918 11.1392 9.31389ZM6.375 9.91668C2.71929 9.91668 1.41667 8.27052 1.41667 6.72918C1.41667 6.44739 1.52861 6.17714 1.72787 5.97788C1.92712 5.77863 2.19737 5.66669 2.47917 5.66669C2.57035 5.66601 2.66054 5.64773 2.74479 5.61285C3.59776 6.99182 4.64776 8.23869 5.86146 9.31389C6.06943 9.49184 6.25517 9.69423 6.41467 9.91668H6.375Z" fill="black"/>
</svg>
