<svg width="46" height="46" viewBox="0 0 46 46" fill="none" xmlns="http://www.w3.org/2000/svg">
<rect x="0.5" y="0.5" width="45" height="45" rx="22.5" fill="#172936" stroke="#6B7280"/>
<path d="M16.0399 22.1562C16.1756 22.1563 16.31 22.1297 16.4353 22.0776C16.5606 22.0256 16.6743 21.9493 16.77 21.8531L22.0547 16.569C22.2146 16.4091 22.4045 16.2822 22.6134 16.1956C22.8224 16.1091 23.0463 16.0645 23.2725 16.0645C23.4986 16.0645 23.7226 16.1091 23.9315 16.1956C24.1404 16.2822 24.3303 16.4091 24.4902 16.569L29.7666 21.8462C29.8619 21.9449 29.9759 22.0236 30.102 22.0777C30.228 22.1319 30.3636 22.1604 30.5008 22.1616C30.6379 22.1628 30.774 22.1366 30.901 22.0847C31.0279 22.0327 31.1433 21.956 31.2403 21.859C31.3373 21.762 31.414 21.6467 31.4659 21.5197C31.5179 21.3927 31.544 21.2567 31.5428 21.1195C31.5416 20.9823 31.5131 20.8468 31.459 20.7207C31.4048 20.5947 31.3261 20.4807 31.2275 20.3854L25.951 15.1082C25.2401 14.3986 24.2768 14.0001 23.2725 14.0001C22.2681 14.0001 21.3048 14.3986 20.5939 15.1082L15.3092 20.3923C15.1646 20.5368 15.0661 20.7209 15.0262 20.9214C14.9863 21.1218 15.0068 21.3296 15.085 21.5185C15.1632 21.7073 15.2957 21.8687 15.4657 21.9822C15.6357 22.0957 15.8355 22.1563 16.0399 22.1562Z" fill="#D1D5DB" fill-opacity="0.8"/>
<path d="M16.0336 29.9945C16.1693 29.9947 16.3036 29.968 16.4289 29.916C16.5542 29.864 16.668 29.7877 16.7637 29.6915L22.0484 24.4074C22.2083 24.2475 22.3981 24.1206 22.6071 24.034C22.816 23.9475 23.0399 23.9029 23.2661 23.9029C23.4923 23.9029 23.7162 23.9475 23.9251 24.034C24.1341 24.1206 24.3239 24.2475 24.4838 24.4074L29.7603 29.6846C29.8556 29.7833 29.9696 29.862 30.0956 29.9161C30.2217 29.9703 30.3572 29.9988 30.4944 30C30.6316 30.0012 30.7676 29.975 30.8946 29.9231C31.0216 29.8711 31.1369 29.7944 31.2339 29.6974C31.3309 29.6004 31.4076 29.4851 31.4596 29.3581C31.5115 29.2311 31.5377 29.0951 31.5365 28.9579C31.5353 28.8207 31.5068 28.6852 31.4526 28.5591C31.3985 28.4331 31.3198 28.3191 31.2211 28.2238L25.9446 22.9466C25.2338 22.237 24.2705 21.8385 23.2661 21.8385C22.2617 21.8385 21.2984 22.237 20.5876 22.9466L15.3028 28.2306C15.1582 28.3751 15.0598 28.5593 15.0199 28.7597C14.98 28.9602 15.0004 29.168 15.0787 29.3568C15.1569 29.5457 15.2894 29.7071 15.4594 29.8206C15.6294 29.9341 15.8292 29.9946 16.0336 29.9945Z" fill="#D1D5DB" fill-opacity="0.8"/>
</svg>
