<svg width="24" height="24" viewBox="0 0 24 24" fill="none" xmlns="http://www.w3.org/2000/svg">
<path d="M16.8191 5.1344C16.086 4.29394 15.6453 3.19805 15.6453 2H14.7266C14.9632 3.3095 15.7427 4.43326 16.8191 5.1344Z" fill="white"/>
<path d="M8.32339 11.9071C6.73197 11.9071 5.4375 13.2027 5.4375 14.7954C5.4375 15.9053 6.0685 16.8711 6.98715 17.354C6.64382 16.8804 6.43967 16.3 6.43967 15.6684C6.43967 14.0757 7.73414 12.7801 9.32559 12.7801C9.62252 12.7801 9.91015 12.8311 10.1793 12.9147V9.40418C9.90086 9.36699 9.61787 9.34375 9.32559 9.34375C9.27453 9.34375 9.22813 9.3484 9.17709 9.3484V12.0417C8.90335 11.9581 8.62032 11.9071 8.32339 11.9071Z" fill="white"/>
<path d="M19.4217 6.67188V9.34193C17.6401 9.34193 15.9884 8.7708 14.6428 7.8049V14.7935C14.6428 18.2809 11.808 21.1228 8.31891 21.1228C6.9734 21.1228 5.72069 20.6956 4.69531 19.9758C5.85059 21.2156 7.49768 21.9958 9.32111 21.9958C12.8055 21.9958 15.645 19.1585 15.645 15.6665V8.6779C16.9905 9.6438 18.6422 10.2149 20.4239 10.2149V6.77872C20.0759 6.77872 19.7418 6.74154 19.4217 6.67188Z" fill="white"/>
<path d="M14.6456 14.7977V7.80911C15.9912 8.77501 17.6429 9.34614 19.4245 9.34614V6.67608C18.3945 6.45788 17.4899 5.90063 16.8218 5.1344C15.7454 4.43326 14.9704 3.3095 14.7245 2H12.2098L12.2051 15.7775C12.1495 17.3192 10.8782 18.5591 9.32393 18.5591C8.35884 18.5591 7.50977 18.0808 6.98085 17.3564C6.06219 16.8688 5.4312 15.9076 5.4312 14.7977C5.4312 13.205 6.72567 11.9094 8.31708 11.9094C8.61402 11.9094 8.90168 11.9605 9.17079 12.0441V9.35079C5.75598 9.42509 3 12.2298 3 15.6707C3 17.3331 3.64492 18.847 4.69812 19.98C5.7235 20.6998 6.97621 21.127 8.32172 21.127C11.8061 21.127 14.6456 18.2851 14.6456 14.7977Z" fill="white"/>
</svg>
