<svg width="24" height="24" viewBox="0 0 24 24" fill="none" xmlns="http://www.w3.org/2000/svg">
<g clip-path="url(#clip0_2011_23892)">
<path d="M12 0C5.37188 0 0 5.37188 0 12C0 16.9125 2.95313 21.1313 7.18125 22.9875C7.14375 22.1531 7.17188 21.1406 7.3875 20.2312C7.62188 19.2562 8.93438 13.6969 8.93438 13.6969C8.93438 13.6969 8.55 12.9281 8.55 11.8031C8.55 10.0219 9.58125 8.7 10.8656 8.7C11.9531 8.7 12.4875 9.51562 12.4875 10.5C12.4875 11.5969 11.7844 13.2375 11.4281 14.7562C11.1281 16.0312 12.0656 17.0625 13.3219 17.0625C15.6 17.0625 17.1281 14.1469 17.1281 10.6875C17.1281 8.0625 15.3563 6.09375 12.1313 6.09375C8.49375 6.09375 6.225 8.80312 6.225 11.8406C6.225 12.8906 6.53438 13.6219 7.0125 14.1937C7.2375 14.4562 7.26563 14.5594 7.18125 14.8594C7.125 15.075 6.99375 15.6094 6.9375 15.825C6.85313 16.125 6.60938 16.2375 6.3375 16.125C4.65938 15.4406 3.88125 13.6031 3.88125 11.5406C3.88125 8.12813 6.75938 4.04063 12.4594 4.04063C17.0438 4.04063 20.0531 7.35937 20.0531 10.9125C20.0531 15.6187 17.4375 19.1344 13.575 19.1344C12.2813 19.1344 11.0625 18.4313 10.6406 17.6438C10.6406 17.6438 9.94688 20.4094 9.79688 20.9437C9.54375 21.8719 9.04688 22.7906 8.5875 23.5125C9.66563 23.8312 10.8094 24.0094 11.9906 24.0094C18.6188 24.0094 23.9906 18.6375 23.9906 12.0094C24 5.37188 18.6281 0 12 0Z" fill="white"/>
</g>
<defs>
<clipPath id="clip0_2011_23892">
<rect width="24" height="24" fill="white"/>
</clipPath>
</defs>
</svg>
