<svg width="58" height="58" viewBox="0 0 58 58" fill="none" xmlns="http://www.w3.org/2000/svg">
<g filter="url(#filter0_d_2011_22118)">
<path d="M24.124 26.8437C24.1685 26.8386 24.2114 26.8317 24.2559 26.8248C24.3108 26.8163 24.3639 26.8111 24.4187 26.8009C24.4684 26.7906 24.5164 26.7769 24.5661 26.7649C24.6124 26.7529 24.6604 26.7426 24.7066 26.7289C24.7546 26.7152 24.8009 26.6963 24.8471 26.6792C24.8934 26.662 24.9414 26.6466 24.9859 26.6278C25.0288 26.6106 25.0699 26.5884 25.1127 26.5695C25.1607 26.5472 25.2087 26.5267 25.255 26.501C25.2944 26.4804 25.3321 26.4564 25.3715 26.4324C25.4178 26.405 25.4657 26.3793 25.5103 26.3485C25.5514 26.321 25.5891 26.2902 25.6285 26.2611C25.668 26.2319 25.7091 26.2028 25.7485 26.1702C25.8033 26.1257 25.8547 26.076 25.9061 26.028C25.9267 26.0092 25.949 25.992 25.9678 25.9715C25.9678 25.9715 25.9678 25.9698 25.9695 25.968C26.0398 25.8978 26.1066 25.8241 26.1683 25.7487C26.2009 25.7093 26.23 25.6682 26.2591 25.627C26.2883 25.5876 26.3174 25.5499 26.3448 25.5105C26.3757 25.4642 26.4031 25.4163 26.4305 25.3683C26.4528 25.3306 26.4768 25.2946 26.4973 25.2569C26.523 25.2089 26.5453 25.1592 26.5676 25.1112C26.5864 25.0701 26.607 25.0307 26.6241 24.9879C26.643 24.9416 26.6584 24.8936 26.6755 24.8456C26.6927 24.7994 26.7098 24.7548 26.7235 24.7068C26.7372 24.6606 26.7475 24.6126 26.7595 24.5646C26.7715 24.5166 26.7852 24.4686 26.7955 24.4189C26.8058 24.3641 26.8126 24.3076 26.8212 24.251C26.8263 24.2082 26.8349 24.167 26.84 24.1259C26.8503 24.0265 26.8555 23.9271 26.8555 23.826C26.8555 23.826 26.8555 23.826 26.8555 23.8243V0H20.7876V16.4849L6.96919 2.63039C5.27273 3.7648 3.80932 5.21965 2.66807 6.91099L16.5122 20.7912H0V26.8591H23.8241C23.9235 26.8591 24.0246 26.854 24.124 26.8437Z" fill="#F0F0F1"/>
<path d="M31.4105 28.3773C31.3814 28.3773 31.354 28.3807 31.3248 28.3824C31.2546 28.3841 31.1843 28.3858 31.1158 28.3927C31.0644 28.3978 31.0129 28.4064 30.9615 28.415C30.9153 28.4218 30.869 28.427 30.8227 28.4355C30.7679 28.4458 30.7148 28.4612 30.6599 28.4749C30.6188 28.4852 30.576 28.4955 30.5349 28.5075C30.4817 28.5229 30.432 28.5418 30.3806 28.5606C30.3378 28.576 30.295 28.5898 30.2538 28.6069C30.2076 28.6257 30.1613 28.6497 30.115 28.6703C30.0705 28.6909 30.0259 28.7114 29.9831 28.7337C29.9402 28.7577 29.8991 28.7834 29.8563 28.8074C29.8134 28.8331 29.7706 28.8571 29.7278 28.8862C29.6832 28.9153 29.6421 28.9479 29.5992 28.9805C29.5615 29.0079 29.5238 29.0336 29.4878 29.0644C29.4313 29.1107 29.3782 29.1604 29.3251 29.2101C29.3062 29.2289 29.2856 29.2444 29.2668 29.2632C29.2668 29.2632 29.2668 29.2649 29.2651 29.2666C29.1948 29.3369 29.128 29.4106 29.0663 29.486C29.0337 29.5254 29.0046 29.5682 28.9738 29.6094C28.9446 29.6471 28.9155 29.6848 28.8898 29.7242C28.859 29.7704 28.8315 29.8201 28.8024 29.8681C28.7801 29.9058 28.7561 29.9418 28.7356 29.9795C28.7099 30.0275 28.6876 30.0755 28.6653 30.1252C28.6465 30.1663 28.6259 30.2074 28.6071 30.2485C28.5882 30.2948 28.5728 30.3428 28.5557 30.389C28.5385 30.4353 28.5214 30.4816 28.506 30.5296C28.4922 30.5758 28.482 30.6238 28.47 30.6701C28.458 30.7181 28.4443 30.7678 28.434 30.8175C28.4237 30.8723 28.4168 30.9288 28.4083 30.9854C28.4031 31.0282 28.3946 31.0694 28.3894 31.1122C28.3792 31.2116 28.374 31.311 28.374 31.4121C28.374 31.4121 28.374 31.4121 28.374 31.4138V55.2381H34.4419V38.7532L48.2603 52.6077C49.9567 51.4733 51.4202 50.0184 52.5614 48.3271L38.7173 34.4469H55.2295V28.379H31.4054L31.4105 28.3773Z" fill="#F0F0F1"/>
<path d="M28.3774 23.8277C28.3774 23.9271 28.3826 24.0282 28.3929 24.1276C28.3963 24.1704 28.4049 24.2115 28.4117 24.2527C28.4203 24.3092 28.4271 24.3658 28.4374 24.4206C28.4477 24.4703 28.4614 24.5183 28.4734 24.5663C28.4854 24.6142 28.4957 24.6605 28.5094 24.7085C28.5231 24.7565 28.5419 24.801 28.5591 24.849C28.5762 24.8953 28.5916 24.9432 28.6105 24.9895C28.6276 25.0324 28.6482 25.0718 28.6688 25.1129C28.691 25.1609 28.7133 25.2106 28.739 25.2586C28.7596 25.2962 28.7836 25.3322 28.8058 25.3699C28.835 25.4179 28.8624 25.4659 28.8932 25.5139C28.9207 25.5533 28.9498 25.591 28.9772 25.6287C29.008 25.6698 29.0372 25.7127 29.0697 25.7521C29.1331 25.8292 29.1983 25.9012 29.2685 25.9714C29.2685 25.9714 29.2685 25.9731 29.2702 25.9748C29.2908 25.9954 29.3114 26.0125 29.3319 26.0314C29.3833 26.0794 29.4347 26.1291 29.4896 26.1736C29.529 26.2062 29.5701 26.2336 29.6095 26.2644C29.6489 26.2936 29.6866 26.3244 29.7278 26.3518C29.7723 26.3827 29.8203 26.4084 29.8666 26.4358C29.906 26.4581 29.942 26.4821 29.9831 26.5043C30.0293 26.53 30.0773 26.5506 30.1253 26.5729C30.1682 26.5934 30.2093 26.614 30.2521 26.6311C30.2984 26.65 30.3447 26.6654 30.3909 26.6826C30.4372 26.6997 30.4835 26.7168 30.5314 26.7323C30.5777 26.746 30.6257 26.7562 30.672 26.7682C30.7199 26.7802 30.7696 26.7939 30.8193 26.8042C30.8724 26.8145 30.9273 26.8214 30.9821 26.8282C31.0267 26.8351 31.0695 26.8419 31.1141 26.8471C31.2134 26.8573 31.3128 26.8625 31.4139 26.8625H55.2381V20.7946H38.7258L52.57 6.91436C51.4287 5.22302 49.9653 3.76817 48.2689 2.63376L34.4504 16.4883V0.00337147H28.3826V23.8277C28.3826 23.8277 28.3826 23.8277 28.3826 23.8294L28.3774 23.8277Z" fill="#F0F0F1"/>
<path d="M26.8589 31.4087C26.8589 31.3093 26.8538 31.2082 26.8435 31.1088C26.8401 31.066 26.8315 31.0249 26.8246 30.982C26.8161 30.9255 26.8109 30.8707 26.7989 30.8141C26.7886 30.7644 26.7749 30.7164 26.7629 30.6667C26.7509 30.6188 26.7407 30.5725 26.727 30.5262C26.7132 30.4782 26.6944 30.4337 26.679 30.3874C26.6618 30.3394 26.6464 30.2915 26.6276 30.2452C26.6104 30.2041 26.5899 30.1629 26.571 30.1218C26.5487 30.0721 26.5265 30.0241 26.5008 29.9762C26.4802 29.9385 26.4562 29.9007 26.4339 29.8648C26.4048 29.8168 26.3791 29.7688 26.3482 29.7225C26.3208 29.6831 26.2917 29.6454 26.2626 29.606C26.2317 29.5649 26.2043 29.5238 26.1717 29.4843C26.1083 29.4072 26.0432 29.3353 25.973 29.265C25.973 29.265 25.973 29.2633 25.9713 29.2616C25.9524 29.2427 25.9301 29.2256 25.9096 29.2067C25.8582 29.157 25.805 29.1091 25.7502 29.0628C25.7108 29.0319 25.6714 29.0028 25.632 28.9737C25.5926 28.9446 25.5531 28.9137 25.512 28.8863C25.4675 28.8554 25.4195 28.8297 25.3732 28.8023C25.3338 28.7801 25.2961 28.7543 25.2567 28.7338C25.2087 28.7081 25.1607 28.6875 25.1127 28.6635C25.0716 28.6447 25.0305 28.6241 24.9877 28.6053C24.9397 28.5864 24.8917 28.5693 24.8437 28.5521C24.7992 28.5367 24.7529 28.5179 24.7066 28.5042C24.6586 28.4887 24.6089 28.4785 24.5593 28.4665C24.513 28.4545 24.4667 28.4425 24.4187 28.4322C24.3605 28.4202 24.3022 28.4133 24.244 28.4048C24.2045 28.3996 24.1651 28.3911 24.1257 28.3876C24.028 28.3774 23.9304 28.3739 23.8327 28.3722C23.831 28.3722 23.8275 28.3722 23.8258 28.3722H0.00171638V34.4401H16.5139L2.66979 48.3203C3.81104 50.0117 5.27445 51.4665 6.97091 52.6009L20.7893 38.7464V55.2313H26.8572V31.407C26.8572 31.407 26.8572 31.407 26.8572 31.4053L26.8589 31.4087Z" fill="#1CC9FF"/>
</g>
<defs>
<filter id="filter0_d_2011_22118" x="0" y="0" width="58" height="58" filterUnits="userSpaceOnUse" color-interpolation-filters="sRGB">
<feFlood flood-opacity="0" result="BackgroundImageFix"/>
<feColorMatrix in="SourceAlpha" type="matrix" values="0 0 0 0 0 0 0 0 0 0 0 0 0 0 0 0 0 0 127 0" result="hardAlpha"/>
<feOffset dx="2.75" dy="2.75"/>
<feColorMatrix type="matrix" values="0 0 0 0 0 0 0 0 0 0 0 0 0 0 0 0 0 0 1 0"/>
<feBlend mode="normal" in2="BackgroundImageFix" result="effect1_dropShadow_2011_22118"/>
<feBlend mode="normal" in="SourceGraphic" in2="effect1_dropShadow_2011_22118" result="shape"/>
</filter>
</defs>
</svg>
