<svg width="11" height="11" viewBox="0 0 11 11" fill="none" xmlns="http://www.w3.org/2000/svg">
<g filter="url(#filter0_d_2011_22207)">
<path d="M6.4502 0.794298L7.41809 2.74608C7.55008 3.01778 7.90204 3.27839 8.19901 3.32829L9.95331 3.62217C11.0752 3.81069 11.3392 4.63133 10.5307 5.44087L9.1669 6.81599C8.93592 7.04888 8.80944 7.49801 8.88093 7.81961L9.27139 9.52187C9.57935 10.8693 8.86993 11.3905 7.68756 10.6863L6.04325 9.70485C5.74628 9.52742 5.25683 9.52742 4.95437 9.70485L3.31005 10.6863C2.13318 11.3905 1.41826 10.8637 1.72622 9.52187L2.11668 7.81961C2.18817 7.49801 2.06169 7.04888 1.83071 6.81599L0.466861 5.44087C-0.33605 4.63133 -0.0775783 3.81069 1.0443 3.62217L2.7986 3.32829C3.09007 3.27839 3.44203 3.01778 3.57402 2.74608L4.54191 0.794298C5.06985 -0.264766 5.92776 -0.264766 6.4502 0.794298Z" fill="#FFBF00"/>
<path d="M6.4502 0.794298L7.41809 2.74608C7.55008 3.01778 7.90204 3.27839 8.19901 3.32829L9.95331 3.62217C11.0752 3.81069 11.3392 4.63133 10.5307 5.44087L9.1669 6.81599C8.93592 7.04888 8.80944 7.49801 8.88093 7.81961L9.27139 9.52187C9.57935 10.8693 8.86993 11.3905 7.68756 10.6863L6.04325 9.70485C5.74628 9.52742 5.25683 9.52742 4.95437 9.70485L3.31005 10.6863C2.13318 11.3905 1.41826 10.8637 1.72622 9.52187L2.11668 7.81961C2.18817 7.49801 2.06169 7.04888 1.83071 6.81599L0.466861 5.44087C-0.33605 4.63133 -0.0775783 3.81069 1.0443 3.62217L2.7986 3.32829C3.09007 3.27839 3.44203 3.01778 3.57402 2.74608L4.54191 0.794298C5.06985 -0.264766 5.92776 -0.264766 6.4502 0.794298Z" stroke="black" stroke-width="0.5" stroke-linecap="round" stroke-linejoin="round"/>
</g>
<defs>
<filter id="filter0_d_2011_22207" x="-0.250488" y="-0.25" width="12.001" height="12.2505" filterUnits="userSpaceOnUse" color-interpolation-filters="sRGB">
<feFlood flood-opacity="0" result="BackgroundImageFix"/>
<feColorMatrix in="SourceAlpha" type="matrix" values="0 0 0 0 0 0 0 0 0 0 0 0 0 0 0 0 0 0 127 0" result="hardAlpha"/>
<feOffset dx="0.5" dy="0.75"/>
<feColorMatrix type="matrix" values="0 0 0 0 0 0 0 0 0 0 0 0 0 0 0 0 0 0 1 0"/>
<feBlend mode="normal" in2="BackgroundImageFix" result="effect1_dropShadow_2011_22207"/>
<feBlend mode="normal" in="SourceGraphic" in2="effect1_dropShadow_2011_22207" result="shape"/>
</filter>
</defs>
</svg>
