<svg width="25" height="25" viewBox="0 0 25 25" fill="none" xmlns="http://www.w3.org/2000/svg">
<g filter="url(#filter0_d_2010_14801)">
<path d="M14.6595 1.80522L16.8593 6.24109C17.1593 6.85859 17.9592 7.45088 18.6341 7.56429L22.6212 8.23219C25.1709 8.66066 25.7708 10.5257 23.9335 12.3656L20.8339 15.4909C20.3089 16.0202 20.0214 17.0409 20.1839 17.7718L21.0713 21.6406C21.7713 24.7029 20.1589 25.8875 17.4717 24.287L13.7346 22.0565C13.0597 21.6532 11.9473 21.6532 11.2599 22.0565L7.52283 24.287C4.84813 25.8875 3.22331 24.6903 3.92323 21.6406L4.81063 17.7718C4.97312 17.0409 4.68565 16.0202 4.16071 15.4909L1.06105 12.3656C-0.76375 10.5257 -0.176314 8.66066 2.3734 8.23219L6.36046 7.56429C7.02289 7.45088 7.8228 6.85859 8.12277 6.24109L10.3225 1.80522C11.5224 -0.601741 13.4722 -0.601741 14.6595 1.80522Z" fill="#FFFF2A"/>
<path d="M14.6595 1.80522L16.8593 6.24109C17.1593 6.85859 17.9592 7.45088 18.6341 7.56429L22.6212 8.23219C25.1709 8.66066 25.7708 10.5257 23.9335 12.3656L20.8339 15.4909C20.3089 16.0202 20.0214 17.0409 20.1839 17.7718L21.0713 21.6406C21.7713 24.7029 20.1589 25.8875 17.4717 24.287L13.7346 22.0565C13.0597 21.6532 11.9473 21.6532 11.2599 22.0565L7.52283 24.287C4.84813 25.8875 3.22331 24.6903 3.92323 21.6406L4.81063 17.7718C4.97312 17.0409 4.68565 16.0202 4.16071 15.4909L1.06105 12.3656C-0.76375 10.5257 -0.176314 8.66066 2.3734 8.23219L6.36046 7.56429C7.02289 7.45088 7.8228 6.85859 8.12277 6.24109L10.3225 1.80522C11.5224 -0.601741 13.4722 -0.601741 14.6595 1.80522Z" stroke="black" stroke-linecap="round" stroke-linejoin="round"/>
</g>
<defs>
<filter id="filter0_d_2010_14801" x="-0.500977" y="-0.5" width="27.252" height="27.251" filterUnits="userSpaceOnUse" color-interpolation-filters="sRGB">
<feFlood flood-opacity="0" result="BackgroundImageFix"/>
<feColorMatrix in="SourceAlpha" type="matrix" values="0 0 0 0 0 0 0 0 0 0 0 0 0 0 0 0 0 0 127 0" result="hardAlpha"/>
<feOffset dx="1.25" dy="1.25"/>
<feColorMatrix type="matrix" values="0 0 0 0 0 0 0 0 0 0 0 0 0 0 0 0 0 0 1 0"/>
<feBlend mode="normal" in2="BackgroundImageFix" result="effect1_dropShadow_2010_14801"/>
<feBlend mode="normal" in="SourceGraphic" in2="effect1_dropShadow_2010_14801" result="shape"/>
</filter>
</defs>
</svg>
