<svg width="27" height="26" viewBox="0 0 27 26" fill="none" xmlns="http://www.w3.org/2000/svg">
<path d="M15.16 2.30514L17.3596 6.74084C17.6596 7.35831 18.4595 7.95058 19.1344 8.06399L23.1213 8.73186C25.6709 9.16031 26.2708 11.0253 24.4336 12.8651L21.334 15.9903C20.8091 16.5195 20.5217 17.5403 20.6841 18.2711L21.5715 22.1398C22.2714 25.2019 20.6591 26.3865 17.972 24.7861L14.2351 22.5556C13.5602 22.1524 12.4479 22.1524 11.7605 22.5556L8.02351 24.7861C5.3489 26.3865 3.72415 25.1893 4.42404 22.1398L5.31141 18.2711C5.47389 17.5403 5.18643 16.5195 4.66151 15.9903L1.56197 12.8651C-0.262764 11.0253 0.32465 9.16031 2.87427 8.73186L6.86118 8.06399C7.52358 7.95058 8.32346 7.35831 8.62342 6.74084L10.8231 2.30514C12.0229 -0.101737 13.9726 -0.101737 15.16 2.30514Z" fill="#FFFF2A" stroke="black" stroke-linecap="round" stroke-linejoin="round"/>
</svg>
