<?xml version="1.0" encoding="UTF-8"?>
<svg id="Layer_1" xmlns="http://www.w3.org/2000/svg" xmlns:xlink="http://www.w3.org/1999/xlink" version="1.1" viewBox="0 0 800 600">
  <!-- Generator: Adobe Illustrator 29.5.1, SVG Export Plug-In . SVG Version: 2.1.0 Build 141)  -->
  <defs>
    <style>
      .st0 {
        fill: none;
      }

      .st1 {
        fill: #1cc9ff;
      }

      .st2 {
        fill: #f0f0f1;
      }

      .st3 {
        clip-path: url(#clippath);
      }
    </style>
    <clipPath id="clippath">
      <path class="st0" d="M429.03,471.47l-3.74-25.61-7.36,1.08,3.74,25.61-11.7,1.71,1.08,7.4,30.76-4.49-1.08-7.41-11.7,1.71ZM297.91,191.9l-5.65-4.91-12.85,14.79c-2.79-2.46-9.29-8.13-19.51-17.01l-4.91,5.65,25.19,21.89,17.73-20.41ZM277.51,215.65l-6.56-3.61-10.42,18.92-5.45-2.95,9.47-17.21-5.26-2.9-9.45,17.16-5.45-2.95,10.44-18.96-6.56-3.61-14.03,25.47,29.23,16.1,14.03-25.47ZM252.8,321.11l-7.27,1.78,4.67,19.03c-3.62.86-12,2.9-25.15,6.13l1.78,7.27,32.41-7.96-6.44-26.25ZM229.07,270.8l1.84.5c1.96.53,3.86.34,5.69-.57,1.83-.92,3.12-2.33,3.87-4.23l6.36-16.1c.12-.33.32-.61.6-.85.28-.24.58-.39.92-.47.33-.07.67-.06,1.01.03l1.1.3c.55.15.97.48,1.26.99.29.51.36,1.05.2,1.63l-3.8,13.94c-.16.58-.49,1.02-1,1.31-.51.29-1.04.36-1.59.21l-1.75-.48-1.98,7.27,2.53.69c2.33.64,4.55.35,6.66-.85,2.11-1.21,3.48-2.97,4.11-5.3l4.27-15.69c.63-2.33.35-4.55-.85-6.66-1.2-2.11-2.97-3.48-5.3-4.11l-1.84-.5c-1.29-.35-2.58-.38-3.88-.09-1.3.29-2.45.86-3.46,1.73-1.01.86-1.75,1.92-2.22,3.17l-6.36,16.1c-.12.33-.32.61-.6.85-.28.24-.58.39-.92.47-.33.07-.67.07-1.01-.03l-1.1-.3c-.55-.15-.97-.48-1.26-.99-.29-.51-.36-1.05-.2-1.63l3.63-13.34c.16-.58.49-1.02,1-1.31.51-.29,1.04-.36,1.59-.21l1.75.48,1.98-7.27-2.53-.69c-2.33-.63-4.55-.35-6.66.85-2.11,1.21-3.48,2.97-4.11,5.3l-4.11,15.09c-.63,2.33-.35,4.55.85,6.66,1.2,2.11,2.97,3.48,5.3,4.11ZM502.31,188.79c-.13,2.29.56,4.27,2.06,5.96l11.97,13.4c1.53,1.71,3.42,2.62,5.69,2.75,2.27.13,4.25-.57,5.96-2.1l12.59-11.24c1.71-1.53,2.62-3.42,2.75-5.69.13-2.27-.57-4.25-2.09-5.96l-11.97-13.4c-1.5-1.68-3.4-2.59-5.69-2.72-2.29-.13-4.27.56-5.96,2.06l-12.59,11.24c-1.68,1.5-2.59,3.4-2.72,5.69ZM511.05,187.76l10.52-9.4c.45-.4.97-.59,1.55-.55.58.03,1.08.27,1.48.72l10.16,11.38c.38.43.56.94.54,1.53-.02.6-.26,1.09-.71,1.5l-10.52,9.4c-.45.4-.97.58-1.57.54-.59-.05-1.08-.28-1.46-.71l-10.16-11.38c-.4-.45-.59-.97-.55-1.55.03-.58.27-1.08.72-1.48ZM547.2,278.89l7.27-1.78-4.67-19.03c3.62-.86,12-2.9,25.15-6.13l-1.78-7.27-32.41,7.96,6.44,26.25ZM527.33,218.58c-.71,2.18-.55,4.27.47,6.28l8.16,16.01c1.04,2.04,2.64,3.41,4.8,4.11,2.16.7,4.26.53,6.3-.51l15.03-7.66c2.04-1.04,3.41-2.64,4.11-4.8.7-2.16.53-4.26-.51-6.3l-8.16-16.01c-1.03-2.01-2.63-3.37-4.81-4.08-2.18-.71-4.28-.55-6.29.48l-15.03,7.67c-2.01,1.02-3.37,2.63-4.08,4.81ZM534.96,221.06c.18-.56.54-.97,1.08-1.25l12.57-6.41c.54-.27,1.08-.32,1.64-.14.55.18.97.54,1.24,1.08l6.93,13.59c.26.51.3,1.05.13,1.62-.17.57-.53.99-1.07,1.27l-12.57,6.41c-.54.27-1.09.31-1.65.12-.56-.19-.98-.55-1.23-1.06l-6.93-13.59c-.27-.54-.32-1.08-.14-1.64ZM576.23,333.31c-1.2-2.11-2.97-3.48-5.3-4.11l-1.84-.5c-1.96-.53-3.86-.34-5.69.57-1.83.92-3.12,2.33-3.87,4.23l-6.36,16.1c-.12.33-.32.61-.6.85-.28.24-.58.39-.92.47-.33.07-.67.06-1.01-.03l-1.1-.3c-.55-.15-.97-.48-1.26-.99-.29-.51-.36-1.05-.2-1.63l3.8-13.94c.16-.58.49-1.02,1-1.31.51-.29,1.04-.36,1.59-.21l1.75.48,1.98-7.27-2.53-.69c-2.33-.64-4.55-.35-6.66.85-2.11,1.21-3.48,2.97-4.11,5.3l-4.27,15.69c-.63,2.33-.35,4.55.85,6.66,1.2,2.11,2.97,3.48,5.3,4.11l1.84.5c1.29.35,2.58.38,3.88.09,1.3-.29,2.45-.86,3.46-1.73,1.01-.86,1.75-1.92,2.22-3.17l6.36-16.1c.12-.33.32-.61.6-.85.28-.24.59-.39.92-.47.33-.07.67-.07,1.01.03l1.1.3c.55.15.97.48,1.26.99.29.51.36,1.05.2,1.63l-3.64,13.34c-.16.58-.49,1.02-1,1.31-.51.29-1.04.36-1.59.21l-1.75-.48-1.98,7.27,2.53.69c2.33.63,4.55.35,6.66-.85,2.11-1.21,3.48-2.97,4.11-5.3l4.11-15.09c.63-2.33.35-4.55-.86-6.66ZM522.49,384.35l6.56,3.61,10.42-18.92,5.45,2.95-9.47,17.21,5.26,2.9,9.45-17.16,5.45,2.95-10.44,18.96,6.56,3.61,14.03-25.47-29.23-16.1-14.03,25.47ZM485.97,179.51l14.52-21.43,9.79,6.63,4.2-6.2-25.73-17.44-4.2,6.2,9.79,6.63-14.52,21.43,6.16,4.17ZM461.83,129.45l-7.09-2.4-10.72,31.6,7.09,2.4,10.72-31.6ZM475.24,428.3l4.42,6.04,17.43-12.75,3.7,4.97-15.85,11.6,3.55,4.85,15.81-11.57,3.7,4.97-17.47,12.78,4.42,6.04,23.47-17.18-19.71-26.93-23.47,17.18ZM355.29,146.01l-6.87,2.84.67,1.63c.23.56.23,1.11-.01,1.66s-.62.93-1.15,1.15l-14.1,5.83c-.56.23-1.11.23-1.65.01-.54-.22-.92-.61-1.16-1.17l-5.39-13.04c-.23-.56-.23-1.11-.01-1.65.22-.54.61-.92,1.17-1.16l14.1-5.83c.53-.22,1.07-.22,1.62,0,.55.22.95.61,1.18,1.16l.67,1.63,6.87-2.84-1.2-2.91c-.87-2.11-2.36-3.61-4.46-4.48-2.1-.87-4.2-.87-6.32,0l-16.61,6.87c-2.09.86-3.57,2.35-4.45,4.47-.88,2.12-.89,4.22-.02,6.3l6.45,15.6c.86,2.09,2.35,3.57,4.47,4.45,2.12.88,4.22.89,6.3.02l16.61-6.87c2.11-.87,3.61-2.36,4.48-4.46.87-2.1.87-4.2,0-6.32l-1.2-2.91ZM386.96,453.53l-17.37-2.46-1.59-6.15-8.02-1.14,8.52,32.98c.14.6.45,1.11.92,1.53.47.42,1.02.67,1.65.76l6.7.95c.38.05.77.03,1.17-.08.4-.11.76-.28,1.08-.52.32-.24.59-.54.8-.9l17.34-29.32-7.98-1.13-3.23,5.47ZM375.9,472.18l-.9-.13-3.79-14.69,12.41,1.76-7.72,13.06ZM272.67,381.42c.71-2.18.55-4.27-.47-6.28l-8.16-16.01c-1.04-2.04-2.64-3.41-4.8-4.11-2.16-.7-4.26-.53-6.3.51l-15.03,7.66c-2.04,1.04-3.41,2.64-4.11,4.8-.7,2.16-.53,4.26.51,6.3l8.16,16.01c1.03,2.01,2.63,3.37,4.81,4.08,2.18.71,4.28.55,6.29-.48l15.03-7.67c2.01-1.02,3.37-2.63,4.08-4.81ZM265.04,378.94c-.18.56-.54.97-1.08,1.25l-12.57,6.41c-.54.27-1.08.32-1.64.14-.55-.18-.97-.54-1.24-1.08l-6.93-13.59c-.26-.51-.3-1.05-.13-1.62.17-.57.53-.99,1.07-1.27l12.57-6.41c.54-.27,1.09-.31,1.65-.12.56.19.98.55,1.23,1.06l6.93,13.59c.27.54.32,1.08.14,1.64ZM430.41,148.93l1.59,6.15,8.02,1.14-8.52-32.98c-.14-.6-.45-1.11-.92-1.53-.47-.42-1.02-.67-1.65-.76l-6.7-.95c-.38-.05-.77-.03-1.17.08-.4.1-.76.28-1.08.52-.32.24-.59.54-.8.9l-17.34,29.32,7.98,1.13,3.23-5.47,17.37,2.46ZM424.1,127.82l.9.13,3.79,14.69-12.41-1.76,7.72-13.06ZM475.36,437.91c-.86-2.08-2.35-3.57-4.47-4.44-2.12-.88-4.22-.89-6.3-.03l-16.61,6.87c-2.11.88-3.61,2.36-4.48,4.46-.87,2.1-.87,4.2,0,6.32l1.2,2.91,6.87-2.84-.67-1.63c-.23-.56-.23-1.11.01-1.66.24-.54.62-.93,1.15-1.15l14.1-5.83c.56-.23,1.11-.24,1.65-.01.54.22.93.62,1.16,1.17l5.39,13.04c.23.56.24,1.11.01,1.65-.22.54-.61.92-1.17,1.16l-14.1,5.83c-.53.22-1.07.22-1.62,0-.55-.22-.95-.61-1.18-1.16l-.67-1.63-6.87,2.84,1.2,2.91c.87,2.12,2.36,3.61,4.46,4.48,2.1.87,4.2.87,6.32,0l16.61-6.87c2.08-.86,3.57-2.35,4.45-4.47.88-2.12.89-4.22.03-6.3l-6.45-15.6ZM374.71,154.15l7.36-1.08-3.74-25.61,11.7-1.71-1.08-7.41-30.76,4.5,1.08,7.41,11.7-1.71,3.74,25.61ZM338.17,470.55l7.09,2.4,10.72-31.6-7.09-2.41-10.72,31.6ZM297.69,411.21c.13-2.29-.56-4.27-2.06-5.96l-11.97-13.4c-1.53-1.71-3.42-2.62-5.69-2.75-2.27-.13-4.25.57-5.96,2.1l-12.59,11.24c-1.71,1.52-2.62,3.42-2.75,5.69-.13,2.27.57,4.25,2.1,5.96l11.97,13.4c1.5,1.68,3.4,2.59,5.69,2.72,2.29.13,4.27-.56,5.96-2.06l12.59-11.24c1.68-1.5,2.59-3.4,2.72-5.69ZM288.95,412.24l-10.52,9.4c-.45.4-.97.59-1.55.55-.58-.03-1.08-.27-1.48-.72l-10.16-11.38c-.38-.43-.56-.94-.54-1.53.02-.6.26-1.09.71-1.5l10.52-9.4c.45-.4.97-.58,1.57-.54.59.05,1.08.28,1.46.71l10.16,11.38c.4.45.59.97.55,1.55-.03.58-.27,1.08-.72,1.48ZM502.08,408.1l5.65,4.91,12.85-14.79c2.79,2.46,9.29,8.13,19.51,17.01l4.91-5.65-25.19-21.89-17.73,20.41ZM314.03,420.49l-14.52,21.43-9.79-6.63-4.2,6.2,25.73,17.44,4.2-6.2-9.79-6.63,14.52-21.43-6.16-4.17ZM302.92,178.42l-3.7-4.97,15.85-11.6-3.55-4.85-15.81,11.57-3.7-4.97,17.47-12.78-4.42-6.04-23.47,17.18,19.71,26.93,23.47-17.18-4.42-6.04-17.43,12.75Z"/>
    </clipPath>
  </defs>
  <path class="st2" d="M395.7,294.46c-.19.23-.38.45-.59.66.21-.21.41-.43.59-.66Z"/>
  <path class="st2" d="M393.33,296.48c-.11.07-.23.14-.34.2.12-.06.23-.13.34-.2Z"/>
  <path class="st2" d="M396.23,293.75c-.09.13-.19.25-.28.38.09-.13.19-.25.28-.38Z"/>
  <path class="st2" d="M394.96,295.25c-.17.16-.33.31-.51.46.18-.14.34-.3.51-.46Z"/>
  <path class="st2" d="M391.77,297.22c-.14.05-.27.1-.41.14.14-.04.28-.1.41-.14Z"/>
  <path class="st2" d="M394.1,295.97c-.12.09-.23.18-.36.26.12-.08.24-.17.36-.26Z"/>
  <path class="st2" d="M390.94,297.47c-.15.04-.29.08-.44.11.15-.03.29-.07.44-.11Z"/>
  <path class="st2" d="M392.56,296.89c-.12.06-.25.12-.37.17.13-.05.25-.11.37-.17Z"/>
  <path class="st2" d="M397.57,290.51c-.03.15-.07.29-.11.44.04-.15.08-.29.11-.44Z"/>
  <path class="st2" d="M396.68,292.99c-.06.12-.14.24-.21.36.07-.12.15-.23.21-.36Z"/>
  <path class="st2" d="M397.36,291.36c-.04.14-.1.28-.15.42.05-.14.1-.28.15-.42Z"/>
  <path class="st2" d="M397.06,292.2c-.05.13-.12.26-.18.38.06-.13.12-.25.18-.38Z"/>
  <path class="st2" d="M397.7,289.64c-.01.12-.04.25-.05.37.02-.12.04-.25.05-.37Z"/>
  <path class="st2" d="M390.02,297.65c-.13.02-.26.04-.39.06.13-.01.26-.04.39-.06Z"/>
  <path class="st2" d="M391.36,297.36c-.14.04-.28.07-.42.11.14-.04.28-.07.42-.11Z"/>
  <path class="st2" d="M389.63,297.7c-.29.03-.59.04-.89.04.3,0,.59-.02.89-.04Z"/>
  <path class="st2" d="M390.5,297.57c-.16.03-.32.05-.48.07.16-.02.32-.04.48-.07Z"/>
  <path class="st2" d="M393.74,296.23c-.13.09-.27.17-.41.25.14-.08.28-.16.41-.25Z"/>
  <path class="st2" d="M397.47,290.95c-.04.14-.07.28-.11.42.04-.14.07-.28.11-.42Z"/>
  <path class="st2" d="M392.19,297.06c-.14.06-.28.1-.42.15.14-.05.28-.1.42-.15Z"/>
  <path class="st2" d="M397.75,288.75c0,.3-.02.6-.04.89.03-.3.04-.59.04-.89Z"/>
  <path class="st2" d="M396.88,292.58c-.07.14-.13.28-.2.42.07-.14.13-.28.2-.42Z"/>
  <path class="st2" d="M397.65,290.01c-.02.17-.04.34-.08.5.03-.17.05-.33.08-.5Z"/>
  <path class="st2" d="M397.21,291.79c-.05.14-.09.28-.15.41.06-.14.1-.27.15-.41Z"/>
  <path class="st2" d="M396.47,293.35c-.08.13-.16.27-.24.4.09-.13.16-.27.24-.4Z"/>
  <path class="st2" d="M394.45,295.71c-.11.09-.23.18-.35.26.12-.09.24-.17.35-.26Z"/>
  <path class="st2" d="M395.1,295.12s0,0,0,0c-.05.05-.1.09-.15.14.05-.05.1-.09.15-.13Z"/>
  <path class="st2" d="M395.95,294.13c-.08.11-.16.22-.24.33.09-.11.16-.22.24-.33Z"/>
  <path class="st2" d="M392.99,296.68c-.14.07-.28.14-.43.21.14-.07.29-.13.43-.21Z"/>
  <path class="st2" d="M379.74,218.03v48.93l-41.02-41.13c-5.04,3.36-9.38,7.68-12.77,12.7l41.09,41.2h-49.01v18.01h70.71c.3,0,.6-.02.89-.04.13-.01.26-.04.39-.06.16-.02.32-.04.48-.07.15-.03.29-.07.44-.11.14-.04.28-.07.42-.11.14-.04.28-.1.41-.14.14-.05.28-.1.42-.15.13-.05.25-.11.37-.17.14-.07.29-.13.43-.21.12-.06.23-.13.34-.2.14-.08.28-.16.41-.25.12-.08.24-.17.36-.26.12-.09.24-.17.35-.26.17-.14.34-.3.51-.46.05-.05.1-.09.15-.14.21-.21.41-.43.59-.66.09-.11.16-.22.24-.33.09-.13.19-.25.28-.38.09-.13.16-.27.24-.4.07-.12.15-.23.21-.36.07-.14.13-.28.2-.42.06-.13.12-.25.18-.38.06-.13.1-.27.15-.41.05-.14.1-.28.15-.42.04-.14.07-.28.11-.42.04-.15.08-.29.11-.44.03-.16.05-.33.08-.5.02-.12.04-.25.05-.37.03-.29.04-.59.04-.89,0,0,0,0,0,0v-70.72h-18.01Z"/>
  <path class="st2" d="M402.43,309.49c.03-.15.07-.29.11-.44-.04.15-.08.29-.11.44Z"/>
  <path class="st2" d="M405.87,304.05c.13-.1.26-.2.4-.29-.14.09-.27.19-.4.29Z"/>
  <path class="st2" d="M403.32,307.01c.06-.12.14-.24.21-.36-.07.12-.15.23-.21.36Z"/>
  <path class="st2" d="M403.77,306.25c.09-.13.19-.25.28-.38-.09.13-.19.25-.28.38Z"/>
  <path class="st2" d="M404.3,305.54c.19-.23.38-.45.59-.66-.21.21-.41.43-.59.66Z"/>
  <path class="st2" d="M405.03,304.76c.17-.16.34-.32.52-.47-.18.15-.35.31-.52.47Z"/>
  <path class="st2" d="M402.94,307.8c.05-.13.12-.26.18-.38-.06.13-.12.25-.18.38Z"/>
  <path class="st2" d="M409.89,302.37c.17-.03.33-.05.5-.07-.17.02-.33.05-.5.07Z"/>
  <path class="st2" d="M402.3,310.36c.01-.12.04-.25.05-.37-.02.12-.04.25-.05.37Z"/>
  <path class="st2" d="M402.64,308.64c.04-.14.1-.28.15-.42-.05.14-.1.28-.15.42Z"/>
  <path class="st2" d="M408.18,302.8c.16-.06.32-.12.48-.17-.16.05-.32.11-.48.17Z"/>
  <path class="st2" d="M409,302.55c.17-.04.34-.09.51-.12-.17.03-.34.08-.51.12Z"/>
  <path class="st2" d="M407.39,303.13c.14-.07.28-.14.43-.2-.15.06-.29.13-.43.2Z"/>
  <path class="st2" d="M406.63,303.54c.13-.08.26-.16.39-.23-.13.07-.26.15-.39.23Z"/>
  <path class="st2" d="M402.53,309.05c.04-.14.07-.28.11-.42-.04.14-.07.28-.11.42Z"/>
  <path class="st2" d="M404.05,305.87c.08-.11.16-.22.24-.33-.09.11-.16.22-.24.33Z"/>
  <path class="st2" d="M402.35,309.99c.02-.17.04-.34.08-.5-.03.17-.05.33-.08.5Z"/>
  <path class="st2" d="M406.26,303.76c.12-.08.24-.15.37-.22-.12.07-.25.14-.37.22Z"/>
  <path class="st2" d="M402.25,311.25c0-.3.02-.6.04-.89-.03.3-.04.59-.04.89Z"/>
  <path class="st2" d="M409.51,302.42c.12-.02.25-.04.37-.06-.13.02-.25.03-.37.06Z"/>
  <path class="st2" d="M410.92,302.27c-.18,0-.36,0-.54.03.18-.02.36-.02.54-.03Z"/>
  <path class="st2" d="M408.66,302.64c.11-.03.23-.06.35-.09-.12.03-.23.05-.35.09Z"/>
  <path class="st2" d="M403.53,306.65c.08-.13.16-.27.24-.4-.09.13-.16.27-.24.4Z"/>
  <path class="st2" d="M407.82,302.93c.12-.05.24-.09.36-.13-.12.04-.24.08-.36.13Z"/>
  <path class="st2" d="M405.55,304.29c.1-.08.21-.16.31-.23-.1.08-.21.15-.31.23Z"/>
  <path class="st2" d="M407.02,303.31c.12-.06.25-.12.37-.18-.12.06-.25.11-.37.18Z"/>
  <path class="st2" d="M403.12,307.42c.07-.14.13-.28.2-.42-.07.14-.13.28-.2.42Z"/>
  <path class="st2" d="M402.79,308.21c.05-.14.09-.28.15-.41-.06.14-.1.27-.15.41Z"/>
  <path class="st2" d="M404.9,304.88s0,0,0,0c.04-.04.09-.08.14-.13-.04.04-.09.08-.13.12Z"/>
  <path class="st2" d="M481.97,302.25h-70.71c-.11,0-.22.01-.34.02-.18,0-.36.01-.54.03-.17.02-.33.05-.5.07-.12.02-.25.03-.37.06-.17.03-.34.08-.51.12-.12.03-.23.05-.35.09-.16.05-.32.11-.48.17-.12.04-.24.08-.36.13-.15.06-.29.13-.43.2-.12.06-.25.11-.37.18-.13.07-.26.15-.39.23-.12.07-.25.14-.37.22-.14.09-.27.19-.4.29-.1.08-.21.15-.31.23-.18.15-.35.31-.52.47-.04.04-.09.08-.14.13-.21.21-.41.43-.59.66-.09.11-.16.22-.24.33-.09.13-.19.25-.28.38-.09.13-.16.27-.24.4-.07.12-.15.23-.21.36-.07.14-.13.28-.2.42-.06.13-.12.25-.18.38-.06.13-.1.27-.15.41-.05.14-.1.28-.15.42-.04.14-.07.28-.11.42-.04.15-.08.29-.11.44-.03.16-.05.33-.08.5-.02.12-.04.25-.05.37-.03.29-.04.59-.04.89,0,0,0,0,0,0v70.71h18.01v-48.93l41.02,41.13c5.04-3.36,9.38-7.68,12.77-12.7l-41.09-41.2h49.01v-18.01Z"/>
  <path class="st2" d="M408.64,297.36c-.14-.04-.28-.09-.41-.14.14.05.27.1.41.14Z"/>
  <path class="st2" d="M403.53,293.35c-.07-.12-.15-.23-.21-.36.07.12.14.24.21.36Z"/>
  <path class="st2" d="M403.12,292.58c-.06-.13-.12-.25-.18-.38.05.13.12.26.18.38Z"/>
  <path class="st2" d="M406.26,296.23c-.12-.08-.24-.17-.36-.26.12.09.23.18.36.26Z"/>
  <path class="st2" d="M404.05,294.13c-.09-.13-.19-.25-.28-.38.09.13.19.25.28.38Z"/>
  <path class="st2" d="M405.55,295.71c-.18-.14-.34-.3-.51-.46.17.16.33.31.51.46Z"/>
  <path class="st2" d="M407.81,297.06c-.13-.05-.25-.11-.37-.17.12.06.25.12.37.17Z"/>
  <path class="st2" d="M409.5,297.57c-.15-.03-.29-.07-.43-.11.14.04.29.08.43.11Z"/>
  <path class="st2" d="M404.89,295.11c-.21-.21-.41-.43-.59-.66.19.23.39.45.59.66Z"/>
  <path class="st2" d="M402.35,290.01c-.02-.12-.04-.25-.05-.37.01.13.04.25.05.37Z"/>
  <path class="st2" d="M410.37,297.7c-.13-.01-.26-.04-.38-.06.13.02.25.04.38.06Z"/>
  <path class="st2" d="M407.01,296.68c-.12-.06-.23-.13-.34-.2.11.07.23.14.34.2Z"/>
  <path class="st2" d="M402.79,291.79c-.05-.14-.1-.28-.15-.42.04.14.1.28.15.42Z"/>
  <path class="st2" d="M402.53,290.95c-.04-.15-.08-.29-.11-.44.03.15.07.29.11.44Z"/>
  <path class="st2" d="M407.44,296.89c-.14-.07-.29-.13-.43-.21.14.07.28.14.43.21Z"/>
  <path class="st2" d="M411.26,297.75c-.3,0-.6-.02-.89-.04.3.03.59.04.89.04Z"/>
  <path class="st2" d="M409.07,297.47c-.14-.04-.28-.07-.42-.11.14.04.28.07.42.11Z"/>
  <path class="st2" d="M409.98,297.65c-.16-.02-.33-.04-.49-.07.16.03.32.05.49.07Z"/>
  <path class="st2" d="M408.23,297.22c-.14-.05-.28-.1-.42-.15.14.06.28.1.42.15Z"/>
  <path class="st2" d="M402.43,290.51c-.03-.16-.05-.33-.08-.5.02.17.04.34.08.5Z"/>
  <path class="st2" d="M402.64,291.36c-.04-.14-.07-.28-.11-.42.03.14.07.28.11.42Z"/>
  <path class="st2" d="M402.94,292.2c-.06-.13-.1-.27-.15-.41.05.14.09.28.15.41Z"/>
  <path class="st2" d="M402.3,289.64c-.03-.29-.04-.59-.04-.89,0,.3.02.59.04.89Z"/>
  <path class="st2" d="M406.67,296.48c-.14-.08-.28-.16-.41-.25.13.09.27.17.41.25Z"/>
  <path class="st2" d="M403.32,292.99c-.07-.14-.13-.28-.2-.42.07.14.13.28.2.42Z"/>
  <path class="st2" d="M405.9,295.97c-.12-.09-.24-.17-.35-.26.11.09.23.17.35.26Z"/>
  <path class="st2" d="M404.9,295.12s.1.09.15.13c-.05-.05-.1-.09-.15-.14,0,0,0,0,0,0Z"/>
  <path class="st2" d="M404.3,294.46c-.09-.11-.16-.22-.24-.33.08.11.16.22.24.33Z"/>
  <path class="st2" d="M403.77,293.75c-.09-.13-.16-.27-.24-.4.08.13.16.27.24.4Z"/>
  <path class="st2" d="M432.96,279.74l41.09-41.2c-3.39-5.02-7.73-9.34-12.77-12.7l-41.02,41.13v-48.93h-18.01v70.72s0,0,0,0c0,.3.02.6.04.89.01.12.04.25.05.37.02.17.04.34.08.5.03.15.07.29.11.44.04.14.07.28.11.42.04.14.1.28.15.42.05.14.09.28.15.41.05.13.12.26.18.38.07.14.13.28.2.42.06.12.14.24.21.36.08.13.16.27.24.4.09.13.19.25.28.38.08.11.16.22.24.33.19.23.38.45.59.66.05.05.1.09.15.14.17.16.33.32.51.46.11.09.23.17.35.26.12.09.24.18.36.26.13.09.27.17.41.25.11.07.23.14.34.2.14.07.28.14.43.21.12.06.25.12.37.17.14.06.28.1.42.15.14.05.27.1.41.14.14.04.28.07.42.11.14.04.29.08.43.11.16.03.32.05.49.07.13.02.26.04.38.06.29.03.59.04.89.04h70.71v-18.01h-49.01Z"/>
  <path class="st2" d="M393.74,303.77c.12.08.24.18.36.27-.12-.09-.24-.18-.36-.27Z"/>
  <path class="st2" d="M397.47,309.05c.04.15.08.29.11.44-.03-.15-.07-.29-.11-.44Z"/>
  <path class="st2" d="M392.98,303.31c.12.06.23.14.35.2-.12-.07-.23-.14-.35-.2Z"/>
  <path class="st2" d="M392.19,302.94c.13.05.25.11.37.17-.12-.06-.25-.12-.37-.17Z"/>
  <path class="st2" d="M394.45,304.29c.18.14.35.3.51.46-.17-.16-.33-.32-.51-.46Z"/>
  <path class="st2" d="M396.47,306.65c.07.12.15.23.21.36-.07-.12-.14-.24-.21-.36Z"/>
  <path class="st2" d="M395.95,305.87c.09.13.19.25.28.38-.09-.13-.19-.25-.28-.38Z"/>
  <path class="st2" d="M397.21,308.21c.05.14.1.28.15.42-.04-.14-.1-.28-.15-.42Z"/>
  <path class="st2" d="M395.11,304.89c.21.21.41.43.59.66-.19-.23-.39-.45-.59-.66Z"/>
  <path class="st2" d="M390.5,302.43c.14.03.28.07.42.1-.14-.03-.28-.07-.42-.1Z"/>
  <path class="st2" d="M396.88,307.42c.06.13.12.25.18.38-.05-.13-.12-.26-.18-.38Z"/>
  <path class="st2" d="M388.74,302.25h0s.06,0,.08,0c-.03,0-.05,0-.08,0Z"/>
  <path class="st2" d="M389.63,302.3c.12.01.25.04.37.05-.12-.02-.24-.04-.37-.05Z"/>
  <path class="st2" d="M391.35,302.64c.14.04.27.09.41.14-.14-.05-.27-.1-.41-.14Z"/>
  <path class="st2" d="M397.65,309.99c.02.12.04.25.05.37-.01-.13-.04-.25-.05-.37Z"/>
  <path class="st2" d="M397.06,307.8c.06.13.1.27.15.41-.05-.14-.09-.28-.15-.41Z"/>
  <path class="st2" d="M397.7,310.36c.03.29.04.59.04.89,0-.3-.02-.59-.04-.89Z"/>
  <path class="st2" d="M397.36,308.64c.04.14.07.28.11.42-.03-.14-.07-.28-.11-.42Z"/>
  <path class="st2" d="M397.57,309.49c.03.16.05.33.08.5-.02-.17-.04-.33-.08-.5Z"/>
  <path class="st2" d="M393.33,303.52c.14.08.28.16.41.25-.13-.09-.27-.17-.41-.25Z"/>
  <path class="st2" d="M390.92,302.53c.14.04.29.07.43.11-.14-.04-.29-.08-.43-.11Z"/>
  <path class="st2" d="M390,302.35c.17.02.34.04.5.08-.17-.03-.33-.05-.5-.08Z"/>
  <path class="st2" d="M388.82,302.26c.27,0,.54.01.81.04-.27-.03-.54-.04-.81-.04Z"/>
  <path class="st2" d="M391.76,302.78c.14.05.29.1.42.16-.14-.06-.28-.1-.42-.16Z"/>
  <path class="st2" d="M396.68,307.01c.07.14.13.28.2.42-.07-.14-.13-.28-.2-.42Z"/>
  <path class="st2" d="M395.7,305.54c.09.11.16.22.24.33-.08-.11-.16-.22-.24-.33Z"/>
  <path class="st2" d="M395.1,304.88s-.1-.08-.14-.13c.05.05.1.09.15.13,0,0,0,0,0,0Z"/>
  <path class="st2" d="M392.56,303.11c.14.07.29.13.43.2-.14-.07-.28-.14-.43-.2Z"/>
  <path class="st2" d="M396.23,306.25c.09.13.16.27.24.4-.08-.13-.16-.27-.24-.4Z"/>
  <path class="st2" d="M394.1,304.03c.12.09.23.17.35.26-.11-.09-.23-.17-.35-.26Z"/>
  <path class="st1" d="M397.75,311.25c0-.3-.02-.6-.04-.89-.01-.12-.04-.25-.05-.37-.02-.17-.04-.34-.08-.5-.03-.15-.07-.29-.11-.44-.04-.14-.07-.28-.11-.42-.04-.14-.1-.28-.15-.42-.05-.14-.09-.28-.15-.41-.05-.13-.12-.26-.18-.38-.07-.14-.13-.28-.2-.42-.06-.12-.14-.24-.21-.36-.08-.13-.16-.27-.24-.4-.09-.13-.19-.25-.28-.38-.08-.11-.16-.22-.24-.33-.19-.23-.38-.45-.59-.66-.05-.05-.1-.09-.15-.13-.17-.16-.34-.32-.51-.46-.11-.09-.23-.17-.35-.26-.12-.09-.24-.18-.36-.27-.13-.09-.27-.17-.41-.25-.12-.07-.23-.14-.35-.2-.14-.07-.28-.14-.43-.2-.12-.06-.25-.12-.37-.17-.14-.06-.28-.1-.42-.16-.14-.05-.27-.1-.41-.14-.14-.04-.29-.08-.43-.11-.14-.03-.28-.07-.42-.1-.17-.03-.33-.05-.5-.08-.12-.02-.25-.04-.37-.05-.27-.03-.54-.04-.81-.04-.03,0-.06,0-.08,0h-70.71v18.01h49.01l-41.09,41.2c3.39,5.02,7.73,9.34,12.77,12.7l41.02-41.13v48.93h18.01v-70.71s0,0,0,0Z"/>
  <g class="st3">
    <rect class="st2" x="216.08" y="102.55" width="367.83" height="394.89"/>
  </g>
  <path class="st2" d="M400,175.47c62.65,0,114.63,46.5,123.27,106.79h9.11c-8.7-65.28-64.75-115.81-132.37-115.81s-123.67,50.53-132.37,115.81h9.11c8.64-60.29,60.62-106.79,123.27-106.79Z"/>
  <path class="st2" d="M400,424.53c-62.65,0-114.63-46.5-123.26-106.79h-9.11c8.7,65.28,64.75,115.81,132.37,115.81s123.67-50.53,132.37-115.81h-9.11c-8.64,60.29-60.62,106.79-123.27,106.79Z"/>
  <path class="st2" d="M400,495.9c-102.04,0-186.09-78.42-195.09-178.16h-8.92c4.09,48.01,24.75,92.59,59.21,127.06,38.68,38.68,90.1,59.98,144.8,59.98s106.12-21.3,144.8-59.98c34.47-34.47,55.12-79.05,59.21-127.06h-8.92c-9,99.74-93.05,178.16-195.09,178.16Z"/>
  <path class="st2" d="M400,104.1c102.04,0,186.1,78.42,195.09,178.16h8.92c-4.09-48.01-24.75-92.6-59.21-127.06-38.68-38.68-90.1-59.98-144.8-59.98s-106.12,21.3-144.8,59.98c-34.47,34.46-55.12,79.05-59.21,127.06h8.92c9-99.74,93.05-178.16,195.09-178.16Z"/>
</svg>