<?xml version="1.0" encoding="UTF-8"?>
<svg id="Layer_1" xmlns="http://www.w3.org/2000/svg" xmlns:xlink="http://www.w3.org/1999/xlink" version="1.1" viewBox="0 0 800 600">
  <!-- Generator: Adobe Illustrator 29.5.1, SVG Export Plug-In . SVG Version: 2.1.0 Build 141)  -->
  <defs>
    <style>
      .st0 {
        fill: #1cc9ff;
      }

      .st1 {
        fill: #f0f0f1;
      }

      .st2 {
        fill: #fff;
      }

      .st3 {
        fill: none;
        stroke: #1cc9ff;
        stroke-miterlimit: 10;
        stroke-width: 3.51px;
      }

      .st4 {
        clip-path: url(#clippath);
      }
    </style>
    <clipPath id="clippath">
      <path class="st1" d="M140.58,383.65c1.95.19,3.73.83,5.33,1.92,1.6,1.09,2.86,2.5,3.77,4.22.91,1.72,1.36,3.56,1.36,5.51v2.79c0,3.53-1.26,6.56-3.77,9.07-2.51,2.51-5.53,3.77-9.07,3.77h-23.78c-3.53,0-6.56-1.26-9.07-3.77-2.51-2.51-3.77-5.53-3.77-9.07v-3.84h11.02v2.65c0,.84.3,1.56.91,2.16.6.6,1.35.91,2.23.91h21.13c.88,0,1.63-.3,2.23-.91.6-.6.91-1.32.91-2.16v-1.67c0-.51-.12-.99-.35-1.43-.23-.44-.57-.81-1.01-1.12-.44-.3-.92-.48-1.43-.52l-25.18-2.79c-2.98-.32-5.46-1.6-7.46-3.84-2-2.23-3-4.83-3-7.81v-2.79c0-3.53,1.26-6.56,3.77-9.07,2.51-2.51,5.53-3.77,9.07-3.77h22.87c3.53,0,6.56,1.26,9.07,3.77,2.51,2.51,3.77,5.53,3.77,9.07v3.84h-11.02v-2.65c0-.84-.3-1.56-.91-2.16-.6-.6-1.35-.91-2.23-.91h-20.22c-.88,0-1.63.3-2.23.91-.6.6-.91,1.32-.91,2.16v1.67c0,.51.12.99.35,1.43.23.44.57.81,1.01,1.12.44.3.92.48,1.43.52l25.18,2.79ZM197.76,373.05h-31.66l.07,9.07h28.66v8.79h-28.73l.07,9.07h31.59v10.95h-42.54v-48.82h42.54v10.95ZM213.03,399.97h28.66v10.95h-39.54v-48.82h10.95c0,19.81-.02,32.43-.07,37.87ZM289.12,373.05h-31.66l.07,9.07h28.66v8.79h-28.73l.07,9.07h31.59v10.95h-42.54v-48.82h42.54v10.95ZM332.36,394.25h10.88v4.6c0,3.35-1.17,6.2-3.52,8.54-2.35,2.35-5.2,3.52-8.54,3.52h-26.29c-3.3,0-6.14-1.19-8.51-3.56s-3.56-5.21-3.56-8.51v-24.69c0-3.3,1.19-6.14,3.56-8.51s5.21-3.56,8.51-3.56h26.29c3.35,0,6.19,1.18,8.54,3.52,2.35,2.35,3.52,5.19,3.52,8.54v4.6h-10.88v-2.58c0-.88-.31-1.63-.94-2.23-.63-.6-1.36-.91-2.2-.91h-22.32c-.88,0-1.63.3-2.23.91-.6.6-.91,1.35-.91,2.23v20.64c0,.88.3,1.63.91,2.23.6.6,1.35.91,2.23.91h22.32c.84,0,1.57-.3,2.2-.91.63-.6.94-1.35.94-2.23v-2.58ZM346.72,362.1h45.47v10.95h-17.3v37.87h-10.88v-37.87h-17.3v-10.95ZM447.42,410.92l-3.56-8.58h-25.66l-3.56,8.58h-11.79l19.11-46.03c.23-.56.56-1.05.98-1.46.42-.42.91-.74,1.46-.98.56-.23,1.12-.35,1.67-.35h9.9c.93,0,1.78.26,2.55.77.77.51,1.31,1.19,1.64,2.02l19.11,46.03h-11.86ZM421.9,393.55h18.34l-8.51-20.5h-1.33l-8.51,20.5ZM474.62,410.92h-10.95v-48.82h10.95v48.82ZM499.1,362.1h45.47v10.95h-17.3v37.87h-10.88v-37.87h-17.3v-10.95ZM587.18,362.1c3.35,0,6.19,1.18,8.54,3.52,2.35,2.35,3.52,5.19,3.52,8.54v24.69c0,3.35-1.17,6.2-3.52,8.54-2.35,2.35-5.2,3.52-8.54,3.52h-26.29c-3.3,0-6.14-1.19-8.51-3.56s-3.56-5.21-3.56-8.51v-24.69c0-3.3,1.19-6.14,3.56-8.51s5.21-3.56,8.51-3.56h26.29ZM588.36,396.83v-20.64c0-.88-.31-1.63-.94-2.23-.63-.6-1.36-.91-2.2-.91h-22.32c-.88,0-1.63.3-2.23.91-.6.6-.91,1.35-.91,2.23v20.64c0,.88.3,1.63.91,2.23.6.6,1.35.91,2.23.91h22.32c.84,0,1.57-.3,2.2-.91.63-.6.94-1.35.94-2.23ZM641.85,362.1c3.35,0,6.19,1.18,8.54,3.52,2.35,2.35,3.52,5.19,3.52,8.54v24.69c0,3.35-1.17,6.2-3.52,8.54-2.35,2.35-5.2,3.52-8.54,3.52h-26.29c-3.3,0-6.14-1.19-8.51-3.56s-3.56-5.21-3.56-8.51v-24.69c0-3.3,1.19-6.14,3.56-8.51s5.21-3.56,8.51-3.56h26.29ZM643.04,396.83v-20.64c0-.88-.31-1.63-.94-2.23-.63-.6-1.36-.91-2.2-.91h-22.32c-.88,0-1.63.3-2.23.91-.6.6-.91,1.35-.91,2.23v20.64c0,.88.3,1.63.91,2.23.6.6,1.35.91,2.23.91h22.32c.84,0,1.57-.3,2.2-.91.63-.6.94-1.35.94-2.23ZM669.75,399.97h28.66v10.95h-39.54v-48.82h10.95c0,19.81-.02,32.43-.07,37.87Z"/>
    </clipPath>
  </defs>
  <g>
    <path class="st1" d="M387.04,233.17c.15-.01.3-.04.45-.06.18-.03.36-.05.54-.08.17-.03.34-.08.5-.12.16-.04.32-.07.47-.12.16-.05.32-.11.48-.17.16-.06.31-.11.47-.17.15-.06.29-.13.44-.2.16-.07.32-.14.47-.23.14-.08.27-.16.41-.24.15-.09.3-.18.45-.27.15-.1.29-.21.44-.32.12-.09.25-.18.37-.28.23-.19.45-.39.66-.6.03-.03.06-.05.09-.08,0,0,0,0,0,0,.24-.24.47-.49.69-.76.09-.11.17-.22.25-.33.12-.16.24-.31.35-.47.09-.14.17-.29.26-.43.09-.14.18-.29.26-.43.08-.15.14-.3.22-.45.07-.15.15-.31.22-.46.06-.14.11-.29.16-.44.06-.17.13-.34.18-.51.04-.15.08-.29.11-.44.05-.18.1-.35.13-.54.03-.17.05-.35.08-.52.02-.16.05-.31.07-.47.03-.34.05-.67.05-1.01,0,0,0,0,0,0v-80.79h-20.58v55.9l-46.86-46.98c-5.75,3.84-10.72,8.78-14.59,14.51l46.94,47.07h-56v20.58h80.79c.34,0,.68-.02,1.01-.05Z"/>
    <path class="st1" d="M411.74,238.37c-.1,0-.19.01-.28.01-.24,0-.48.01-.72.04-.17.02-.34.05-.51.07-.16.02-.32.04-.48.07-.18.04-.36.09-.54.13-.15.04-.29.07-.44.11-.17.05-.34.12-.51.18-.15.05-.29.1-.44.16-.16.07-.31.14-.47.22-.15.07-.3.14-.45.21-.15.08-.29.17-.44.26-.14.09-.29.17-.43.26-.16.11-.31.22-.46.34-.12.09-.24.17-.35.26-.23.19-.45.39-.67.6-.03.03-.06.05-.08.08,0,0,0,0,0,0-.24.24-.47.49-.69.76-.09.11-.17.22-.25.33-.12.16-.24.31-.35.47-.09.14-.17.29-.26.43-.09.14-.18.29-.26.43-.08.15-.14.3-.22.45-.07.15-.15.31-.22.46-.06.14-.11.29-.16.44-.06.17-.13.34-.18.51-.04.15-.08.29-.11.44-.05.18-.1.35-.13.54-.03.17-.05.35-.08.52-.02.16-.05.31-.07.47-.03.34-.05.67-.05,1.01,0,0,0,0,0,0v80.79h20.58v-55.9l46.86,46.98c5.75-3.84,10.72-8.78,14.59-14.51l-46.94-47.07h56v-20.58h-80.79Z"/>
    <path class="st1" d="M401.46,222.94c0,.34.02.68.05,1.01.02.16.05.32.07.47.03.17.05.35.08.52.04.18.09.36.13.54.04.15.07.3.11.44.05.17.12.34.18.51.05.15.1.3.16.44.07.16.14.31.22.46.07.15.14.3.22.45.08.15.17.29.26.43.09.14.17.29.26.43.11.16.23.32.35.47.08.11.16.23.25.33.22.26.44.52.69.76,0,0,0,0,0,0,.03.03.06.05.09.08.21.21.43.41.66.6.12.1.25.18.37.28.14.11.29.22.44.32.15.1.3.18.45.27.14.08.27.17.41.24.15.08.31.15.47.23.15.07.29.14.44.2.15.06.31.12.47.17.16.06.32.12.48.17.16.05.32.08.47.12.17.04.33.09.5.12.18.04.36.06.54.08.15.02.3.05.45.06.34.03.68.05,1.01.05h80.79v-20.58h-56l46.94-47.07c-3.87-5.73-8.83-10.67-14.59-14.51l-46.86,46.98v-55.9h-20.58v80.79s0,0,0,0Z"/>
    <path class="st0" d="M396.31,248.65c0-.34-.02-.68-.05-1.01-.02-.16-.05-.32-.07-.47-.03-.17-.05-.35-.08-.52-.04-.18-.09-.36-.13-.54-.04-.15-.07-.3-.11-.44-.05-.17-.12-.34-.18-.51-.05-.15-.1-.3-.16-.44-.07-.16-.14-.31-.22-.46-.07-.15-.14-.3-.22-.45-.08-.15-.17-.29-.26-.43-.09-.14-.17-.29-.26-.43-.11-.16-.23-.32-.35-.47-.08-.11-.16-.23-.25-.33-.22-.26-.44-.52-.69-.76,0,0,0,0,0,0-.03-.03-.06-.05-.09-.08-.21-.21-.43-.41-.66-.6-.12-.1-.25-.19-.38-.28-.14-.11-.28-.22-.43-.31-.15-.1-.31-.19-.46-.28-.13-.08-.26-.16-.4-.24-.16-.09-.32-.16-.49-.23-.14-.07-.28-.14-.42-.2-.16-.07-.33-.12-.49-.18-.15-.05-.3-.11-.46-.16-.17-.05-.33-.09-.5-.13-.16-.04-.31-.08-.48-.12-.19-.04-.39-.06-.58-.09-.14-.02-.28-.05-.42-.06-.31-.03-.62-.04-.93-.05-.03,0-.05,0-.08,0h-80.79v20.58h56l-46.94,47.07c3.87,5.73,8.83,10.67,14.59,14.51l46.86-46.98v55.9h20.58v-80.79s0,0,0,0Z"/>
  </g>
  <g>
    <g>
      <path class="st1" d="M140.58,383.65c1.95.19,3.73.83,5.33,1.92,1.6,1.09,2.86,2.5,3.77,4.22.91,1.72,1.36,3.56,1.36,5.51v2.79c0,3.53-1.26,6.56-3.77,9.07-2.51,2.51-5.53,3.77-9.07,3.77h-23.78c-3.53,0-6.56-1.26-9.07-3.77-2.51-2.51-3.77-5.53-3.77-9.07v-3.84h11.02v2.65c0,.84.3,1.56.91,2.16.6.6,1.35.91,2.23.91h21.13c.88,0,1.63-.3,2.23-.91.6-.6.91-1.32.91-2.16v-1.67c0-.51-.12-.99-.35-1.43-.23-.44-.57-.81-1.01-1.12-.44-.3-.92-.48-1.43-.52l-25.18-2.79c-2.98-.32-5.46-1.6-7.46-3.84-2-2.23-3-4.83-3-7.81v-2.79c0-3.53,1.26-6.56,3.77-9.07,2.51-2.51,5.53-3.77,9.07-3.77h22.87c3.53,0,6.56,1.26,9.07,3.77,2.51,2.51,3.77,5.53,3.77,9.07v3.84h-11.02v-2.65c0-.84-.3-1.56-.91-2.16-.6-.6-1.35-.91-2.23-.91h-20.22c-.88,0-1.63.3-2.23.91-.6.6-.91,1.32-.91,2.16v1.67c0,.51.12.99.35,1.43.23.44.57.81,1.01,1.12.44.3.92.48,1.43.52l25.18,2.79ZM197.76,373.05h-31.66l.07,9.07h28.66v8.79h-28.73l.07,9.07h31.59v10.95h-42.54v-48.82h42.54v10.95ZM213.03,399.97h28.66v10.95h-39.54v-48.82h10.95c0,19.81-.02,32.43-.07,37.87ZM289.12,373.05h-31.66l.07,9.07h28.66v8.79h-28.73l.07,9.07h31.59v10.95h-42.54v-48.82h42.54v10.95ZM332.36,394.25h10.88v4.6c0,3.35-1.17,6.2-3.52,8.54-2.35,2.35-5.2,3.52-8.54,3.52h-26.29c-3.3,0-6.14-1.19-8.51-3.56s-3.56-5.21-3.56-8.51v-24.69c0-3.3,1.19-6.14,3.56-8.51s5.21-3.56,8.51-3.56h26.29c3.35,0,6.19,1.18,8.54,3.52,2.35,2.35,3.52,5.19,3.52,8.54v4.6h-10.88v-2.58c0-.88-.31-1.63-.94-2.23-.63-.6-1.36-.91-2.2-.91h-22.32c-.88,0-1.63.3-2.23.91-.6.6-.91,1.35-.91,2.23v20.64c0,.88.3,1.63.91,2.23.6.6,1.35.91,2.23.91h22.32c.84,0,1.57-.3,2.2-.91.63-.6.94-1.35.94-2.23v-2.58ZM346.72,362.1h45.47v10.95h-17.3v37.87h-10.88v-37.87h-17.3v-10.95ZM447.42,410.92l-3.56-8.58h-25.66l-3.56,8.58h-11.79l19.11-46.03c.23-.56.56-1.05.98-1.46.42-.42.91-.74,1.46-.98.56-.23,1.12-.35,1.67-.35h9.9c.93,0,1.78.26,2.55.77.77.51,1.31,1.19,1.64,2.02l19.11,46.03h-11.86ZM421.9,393.55h18.34l-8.51-20.5h-1.33l-8.51,20.5ZM474.62,410.92h-10.95v-48.82h10.95v48.82ZM499.1,362.1h45.47v10.95h-17.3v37.87h-10.88v-37.87h-17.3v-10.95ZM587.18,362.1c3.35,0,6.19,1.18,8.54,3.52,2.35,2.35,3.52,5.19,3.52,8.54v24.69c0,3.35-1.17,6.2-3.52,8.54-2.35,2.35-5.2,3.52-8.54,3.52h-26.29c-3.3,0-6.14-1.19-8.51-3.56s-3.56-5.21-3.56-8.51v-24.69c0-3.3,1.19-6.14,3.56-8.51s5.21-3.56,8.51-3.56h26.29ZM588.36,396.83v-20.64c0-.88-.31-1.63-.94-2.23-.63-.6-1.36-.91-2.2-.91h-22.32c-.88,0-1.63.3-2.23.91-.6.6-.91,1.35-.91,2.23v20.64c0,.88.3,1.63.91,2.23.6.6,1.35.91,2.23.91h22.32c.84,0,1.57-.3,2.2-.91.63-.6.94-1.35.94-2.23ZM641.85,362.1c3.35,0,6.19,1.18,8.54,3.52,2.35,2.35,3.52,5.19,3.52,8.54v24.69c0,3.35-1.17,6.2-3.52,8.54-2.35,2.35-5.2,3.52-8.54,3.52h-26.29c-3.3,0-6.14-1.19-8.51-3.56s-3.56-5.21-3.56-8.51v-24.69c0-3.3,1.19-6.14,3.56-8.51s5.21-3.56,8.51-3.56h26.29ZM643.04,396.83v-20.64c0-.88-.31-1.63-.94-2.23-.63-.6-1.36-.91-2.2-.91h-22.32c-.88,0-1.63.3-2.23.91-.6.6-.91,1.35-.91,2.23v20.64c0,.88.3,1.63.91,2.23.6.6,1.35.91,2.23.91h22.32c.84,0,1.57-.3,2.2-.91.63-.6.94-1.35.94-2.23ZM669.75,399.97h28.66v10.95h-39.54v-48.82h10.95c0,19.81-.02,32.43-.07,37.87Z"/>
      <g class="st4">
        <rect class="st1" x="98.66" y="362.1" width="599.75" height="48.82"/>
      </g>
    </g>
    <g>
      <g>
        <path class="st2" d="M231.55,455.55v-17.54h5.22c6.32,0,9.49,4.32,9.49,8.77s-3.17,8.77-9.49,8.77h-5.22ZM233.76,453.55h3.02c4.96,0,7.19-3.36,7.19-6.77s-2.21-6.77-7.19-6.77h-3.02v13.54Z"/>
        <path class="st2" d="M248.79,455.55v-17.54h2.21v17.54h-2.21Z"/>
        <path class="st2" d="M253.33,454.13v-2.49c1.47,1.13,3.36,2.21,5.56,2.21,1.98,0,3.45-1.11,3.45-2.94s-1.34-2.64-3.79-3.43c-2.45-.79-5.07-1.94-5.07-5.26,0-3.04,2.75-4.58,5.43-4.58,2.36,0,4.04.74,5.04,1.26v2.53c-1.62-1.13-3.28-1.75-5.04-1.75s-3.15.83-3.15,2.53,1.26,2.47,3.7,3.26c2.45.81,5.15,1.94,5.15,5.43,0,3.19-2.92,4.98-5.73,4.98-2.43,0-4.36-.98-5.56-1.77Z"/>
        <path class="st2" d="M266.16,446.78c0-5.11,4.17-9.11,9.34-9.11,2.32,0,4.32.81,5.64,1.72v2.58c-1.4-1.36-3.53-2.26-5.66-2.26-4.02,0-7.05,3.13-7.05,7.07s3.02,7.07,7.05,7.07c2.17,0,4.26-.91,5.66-2.26v2.6c-1.36.91-3.32,1.7-5.66,1.7-5.15,0-9.32-4-9.32-9.11Z"/>
        <path class="st2" d="M282.3,446.78c0-5.02,4.15-9.11,9.15-9.11s9.17,4.09,9.17,9.11-4.15,9.11-9.17,9.11-9.15-4.07-9.15-9.11ZM298.35,446.78c0-3.96-3.02-7.07-6.9-7.07s-6.88,3.11-6.88,7.07,3.02,7.09,6.88,7.09,6.9-3.11,6.9-7.09Z"/>
        <path class="st2" d="M300.61,438.01h2.47l5.45,12.86,5.43-12.86h2.43l-7.9,17.96-7.88-17.96Z"/>
        <path class="st2" d="M317.76,455.55v-17.54h10.45v2.02h-8.22v5.58h6.88v2h-6.88v5.92h8.51v2.02h-10.75Z"/>
        <path class="st2" d="M343.16,455.55h-2.83l-6.15-6.83h-1.36v6.83h-2.21v-17.54h4.85c3.85,0,6.24,2.36,6.24,5.36,0,2.62-1.92,4.73-4.92,5.24l6.39,6.94ZM332.81,439.97v6.81h2.62c2.6,0,4-1.57,4-3.41s-1.38-3.41-4-3.41h-2.62Z"/>
        <path class="st2" d="M348.99,457.85v-22.14h1.92v22.14h-1.92Z"/>
        <path class="st2" d="M357.89,446.78c0-5.11,4.17-9.11,9.34-9.11,2.32,0,4.32.81,5.64,1.72v2.58c-1.4-1.36-3.53-2.26-5.66-2.26-4.02,0-7.05,3.13-7.05,7.07s3.02,7.07,7.05,7.07c2.17,0,4.26-.91,5.66-2.26v2.6c-1.36.91-3.32,1.7-5.66,1.7-5.15,0-9.32-4-9.32-9.11Z"/>
        <path class="st2" d="M374.03,446.78c0-5.02,4.15-9.11,9.15-9.11s9.17,4.09,9.17,9.11-4.15,9.11-9.17,9.11-9.15-4.07-9.15-9.11ZM390.08,446.78c0-3.96-3.02-7.07-6.9-7.07s-6.88,3.11-6.88,7.07,3.02,7.09,6.88,7.09,6.9-3.11,6.9-7.09Z"/>
        <path class="st2" d="M394.91,455.55v-17.94l12.41,13.3c-.02-1.92-.06-3.7-.06-5.7v-7.19h2.15v18.01l-12.39-13.35c.02,1.92.06,3.81.06,5.73v7.15h-2.17Z"/>
        <path class="st2" d="M412.66,455.55v-17.94l12.41,13.3c-.02-1.92-.06-3.7-.06-5.7v-7.19h2.15v18.01l-12.39-13.35c.02,1.92.06,3.81.06,5.73v7.15h-2.17Z"/>
        <path class="st2" d="M430.42,455.55v-17.54h10.45v2.02h-8.22v5.58h6.87v2h-6.87v5.92h8.51v2.02h-10.75Z"/>
        <path class="st2" d="M441.87,446.78c0-5.11,4.17-9.11,9.34-9.11,2.32,0,4.32.81,5.64,1.72v2.58c-1.4-1.36-3.53-2.26-5.66-2.26-4.02,0-7.04,3.13-7.04,7.07s3.02,7.07,7.04,7.07c2.17,0,4.26-.91,5.66-2.26v2.6c-1.36.91-3.32,1.7-5.66,1.7-5.15,0-9.32-4-9.32-9.11Z"/>
        <path class="st2" d="M463.2,455.55v-15.5h-5.21v-2.04h12.66v2.04h-5.24v15.5h-2.21Z"/>
        <path class="st2" d="M476.74,457.85v-22.14h1.92v22.14h-1.92Z"/>
        <path class="st2" d="M485.64,446.78c0-5.11,4.17-9.11,9.34-9.11,2.32,0,4.32.81,5.64,1.72v2.58c-1.4-1.36-3.53-2.26-5.66-2.26-4.02,0-7.05,3.13-7.05,7.07s3.02,7.07,7.05,7.07c2.17,0,4.26-.91,5.66-2.26v2.6c-1.36.91-3.32,1.7-5.66,1.7-5.15,0-9.32-4-9.32-9.11Z"/>
        <path class="st2" d="M515.89,455.55h-2.83l-6.15-6.83h-1.36v6.83h-2.21v-17.54h4.85c3.85,0,6.24,2.36,6.24,5.36,0,2.62-1.92,4.73-4.92,5.24l6.39,6.94ZM505.54,439.97v6.81h2.62c2.6,0,4-1.57,4-3.41s-1.38-3.41-4-3.41h-2.62Z"/>
        <path class="st2" d="M517.27,455.55v-17.54h10.45v2.02h-8.22v5.58h6.87v2h-6.87v5.92h8.51v2.02h-10.75Z"/>
        <path class="st2" d="M542.79,455.55l-1.64-3.6h-8.83l-1.64,3.6h-2.45l8.49-17.99,8.54,17.99h-2.47ZM533.24,449.95h7l-3.51-7.66-3.49,7.66Z"/>
        <path class="st2" d="M547.78,455.55v-15.5h-5.22v-2.04h12.67v2.04h-5.24v15.5h-2.21Z"/>
        <path class="st2" d="M556.87,455.55v-17.54h10.45v2.02h-8.22v5.58h6.87v2h-6.87v5.92h8.51v2.02h-10.75Z"/>
      </g>
      <line class="st3" x1="220.39" y1="448.62" x2="162.73" y2="448.62"/>
      <line class="st3" x1="637.27" y1="448.62" x2="579.61" y2="448.62"/>
    </g>
  </g>
</svg>