<?xml version="1.0" encoding="UTF-8"?>
<svg id="Layer_1" xmlns="http://www.w3.org/2000/svg" version="1.1" viewBox="0 0 800 600">
  <!-- Generator: Adobe Illustrator 29.5.1, SVG Export Plug-In . SVG Version: 2.1.0 Build 141)  -->
  <defs>
    <style>
      .st0 {
        fill: #1cc9ff;
      }

      .st1 {
        fill: #f0f0f1;
      }
    </style>
  </defs>
  <path class="st1" d="M379.61,295.48c.26-.03.51-.07.77-.11.32-.05.63-.08.95-.14.29-.06.57-.14.86-.21.27-.07.55-.13.82-.21.28-.08.55-.19.82-.29.27-.1.55-.19.81-.3.25-.1.49-.23.74-.34.28-.13.56-.25.83-.4.23-.12.45-.26.68-.4.27-.16.55-.31.81-.49.24-.16.46-.34.69-.51.23-.17.47-.34.7-.53.32-.26.62-.55.92-.83.12-.11.25-.21.36-.33,0,0,0-.01.01-.02.41-.41.8-.84,1.16-1.28.19-.23.36-.47.53-.71.17-.23.34-.45.5-.68.18-.27.34-.55.5-.83.13-.22.27-.43.39-.65.15-.28.28-.57.41-.85.11-.24.23-.47.33-.72.11-.27.2-.55.3-.83.1-.27.2-.53.28-.81.08-.27.14-.55.21-.83.07-.28.15-.56.21-.85.06-.32.1-.65.15-.98.03-.25.08-.49.11-.73.06-.58.09-1.16.09-1.75,0,0,0,0,0-.01v-139.03h-35.41v96.2l-80.64-80.85c-9.9,6.62-18.44,15.11-25.1,24.98l80.79,81h-96.36v35.41h139.03c.58,0,1.17-.03,1.75-.09Z"/>
  <path class="st1" d="M422.13,304.43c-.17,0-.33.02-.5.03-.41.01-.82.02-1.22.06-.3.03-.6.08-.9.13-.27.04-.54.07-.81.12-.32.06-.63.15-.95.23-.24.06-.49.12-.73.19-.31.09-.6.2-.9.31-.25.09-.5.17-.74.27-.27.11-.54.25-.81.37-.26.12-.52.24-.77.37-.25.14-.49.29-.74.43-.25.15-.5.29-.75.46-.26.17-.5.36-.75.55-.22.16-.44.31-.65.49-.33.27-.64.56-.95.85-.11.11-.23.2-.34.31,0,0,0,.01-.01.02-.41.41-.8.84-1.16,1.28-.19.23-.36.48-.54.72-.17.22-.34.44-.49.67-.18.27-.34.56-.51.84-.13.22-.27.43-.39.65-.15.28-.28.56-.41.85-.11.24-.23.48-.34.72-.11.27-.2.55-.3.82-.1.27-.2.54-.29.82-.08.27-.14.55-.21.82-.07.28-.15.57-.21.86-.06.32-.1.65-.15.98-.03.25-.08.49-.11.74-.06.58-.09,1.16-.09,1.75,0,0,0,0,0,.01v139.03h35.41v-96.2l80.64,80.85c9.9-6.62,18.44-15.11,25.1-24.98l-80.79-81h96.36v-35.41h-139.03Z"/>
  <path class="st1" d="M404.43,277.88c0,.58.03,1.17.09,1.75.02.25.07.49.11.73.05.33.09.66.15.98.06.29.14.57.21.85.07.28.13.55.21.83.08.28.19.54.29.82.1.27.19.55.3.82.1.25.22.48.34.72.13.28.26.57.41.85.12.22.26.43.39.65.17.28.33.56.51.84.16.23.33.45.49.67.18.24.35.49.54.72.37.45.75.87,1.16,1.28,0,0,0,.01.01.02.12.12.24.22.36.33.3.28.6.57.92.83.23.19.47.35.7.53.23.17.45.35.69.51.26.18.54.33.81.49.23.13.44.27.68.4.27.15.55.27.83.4.25.12.49.24.74.34.27.11.54.2.81.3.27.1.54.2.82.29.27.08.55.14.82.21.28.07.57.15.86.21.31.06.63.1.95.14.26.04.51.08.77.11.58.06,1.16.09,1.75.09h139.03v-35.41h-96.36l80.79-81c-6.66-9.87-15.2-18.36-25.1-24.98l-80.64,80.85v-96.2h-35.41v139.03s0,0,0,.01Z"/>
  <path class="st0" d="M395.57,322.12c0-.58-.03-1.17-.09-1.75-.02-.25-.07-.49-.11-.74-.05-.33-.08-.65-.15-.98-.06-.29-.14-.57-.21-.86-.07-.28-.13-.55-.21-.82-.08-.28-.19-.54-.28-.81-.1-.28-.19-.56-.3-.83-.1-.24-.22-.48-.33-.72-.13-.29-.26-.57-.41-.85-.12-.22-.26-.44-.39-.65-.17-.28-.32-.56-.5-.83-.16-.23-.33-.45-.5-.68-.18-.24-.34-.48-.53-.71-.37-.45-.75-.87-1.16-1.28,0,0,0-.01-.01-.02-.11-.11-.24-.21-.36-.32-.3-.29-.61-.57-.93-.84-.23-.18-.46-.35-.69-.52-.23-.17-.46-.35-.7-.51-.26-.18-.54-.33-.81-.49-.23-.13-.45-.28-.68-.4-.28-.15-.56-.27-.84-.41-.24-.11-.48-.23-.73-.34-.28-.11-.56-.21-.84-.31-.26-.09-.53-.2-.8-.28-.28-.09-.57-.15-.86-.22-.27-.07-.54-.14-.82-.2-.34-.07-.68-.11-1.02-.16-.23-.03-.46-.08-.69-.1-.57-.06-1.14-.08-1.71-.09-.01,0-.03,0-.04,0h-139.03v35.41h96.36l-80.79,81c6.66,9.87,15.2,18.36,25.1,24.98l80.64-80.85v96.2h35.41v-139.03s0,0,0-.01Z"/>
</svg>